<mxfile host="app.diagrams.net" agent="Mozilla/5.0 (Macintosh; Intel Mac OS X 10_15_7) AppleWebKit/537.36 (KHTML, like Gecko) Chrome/136.0.0.0 Safari/537.36" version="27.1.5">
  <diagram name="Page-1" id="VC8QxF5WI867Sb408p3a">
    <mxGraphModel dx="3424" dy="1532" grid="1" gridSize="10" guides="1" tooltips="1" connect="1" arrows="1" fold="1" page="1" pageScale="1" pageWidth="850" pageHeight="1100" math="0" shadow="0">
      <root>
        <mxCell id="0" />
        <mxCell id="1" parent="0" />
        <mxCell id="GFtdvAifXNPZdg2QPHuQ-133" value="" style="rounded=1;whiteSpace=wrap;html=1;strokeColor=#475E75;fillColor=#F5F6F7;arcSize=24;absoluteArcSize=1;imageWidth=64;imageHeight=64;strokeWidth=1.5;" vertex="1" parent="1">
          <mxGeometry x="1880" y="390" width="750" height="680" as="geometry" />
        </mxCell>
        <mxCell id="GFtdvAifXNPZdg2QPHuQ-134" value="" style="rounded=1;whiteSpace=wrap;html=1;strokeColor=#475E75;fillColor=#ffffff;arcSize=24;absoluteArcSize=1;imageWidth=64;imageHeight=64;strokeWidth=1.5;" vertex="1" parent="1">
          <mxGeometry x="1910" y="420" width="580" height="620" as="geometry" />
        </mxCell>
        <mxCell id="GFtdvAifXNPZdg2QPHuQ-135" value="" style="endArrow=none;html=1;strokeColor=#d20a0a;bendable=1;rounded=0;endFill=0;endSize=4;startArrow=none;startFill=0;startSize=4;jumpStyle=none;jumpSize=0;targetPerimeterSpacing=15;dashed=1;strokeWidth=2;fontSize=13;exitX=0;exitY=0.5;exitDx=0;exitDy=0;" edge="1" parent="1" source="GFtdvAifXNPZdg2QPHuQ-136">
          <mxGeometry width="50" height="50" relative="1" as="geometry">
            <mxPoint x="1942.2831999999999" y="971.6911300000004" as="sourcePoint" />
            <mxPoint x="1940" y="440" as="targetPoint" />
          </mxGeometry>
        </mxCell>
        <mxCell id="GFtdvAifXNPZdg2QPHuQ-137" value="" style="endArrow=none;html=1;strokeColor=#d20a0a;bendable=1;rounded=0;endFill=0;endSize=4;startArrow=none;startFill=0;startSize=4;jumpStyle=none;jumpSize=0;targetPerimeterSpacing=15;dashed=1;strokeWidth=2;fontSize=13;entryX=1;entryY=0.5;entryDx=0;entryDy=0;" edge="1" parent="1" target="GFtdvAifXNPZdg2QPHuQ-136">
          <mxGeometry width="50" height="50" relative="1" as="geometry">
            <mxPoint x="1939" y="980" as="sourcePoint" />
            <mxPoint x="1940" y="440" as="targetPoint" />
          </mxGeometry>
        </mxCell>
        <mxCell id="GFtdvAifXNPZdg2QPHuQ-136" value="&lt;font size=&quot;1&quot;&gt;&lt;b style=&quot;&quot;&gt;Firewall&lt;/b&gt;&lt;/font&gt;" style="rounded=1;whiteSpace=wrap;html=1;arcSize=50;strokeColor=#d20a0a;fillColor=default;strokeWidth=1.5;fontColor=#d20a0a;rotation=90;" vertex="1" parent="1">
          <mxGeometry x="1910" y="685" width="57" height="16" as="geometry" />
        </mxCell>
        <mxCell id="GFtdvAifXNPZdg2QPHuQ-138" value="SAP Cloud Connector" style="shape=mxgraph.sap.icon;labelPosition=center;verticalLabelPosition=bottom;align=center;verticalAlign=top;strokeWidth=1;strokeColor=#D5DADD;fillColor=#EDEFF0;gradientColor=#FCFCFC;gradientDirection=west;aspect=fixed;SAPIcon=Cloud_Connector2" vertex="1" parent="1">
          <mxGeometry x="1990" y="750" width="50" height="50" as="geometry" />
        </mxCell>
        <mxCell id="SeBkJRlhaxik6qpEVH74-2" value="" style="group" parent="1" vertex="1" connectable="0">
          <mxGeometry x="700" y="390" width="958" height="990" as="geometry" />
        </mxCell>
        <mxCell id="SeBkJRlhaxik6qpEVH74-3" value="" style="group;arcSize=24;" parent="SeBkJRlhaxik6qpEVH74-2" vertex="1" connectable="0">
          <mxGeometry x="-170" width="1128" height="960" as="geometry" />
        </mxCell>
        <mxCell id="SeBkJRlhaxik6qpEVH74-4" value="" style="rounded=1;whiteSpace=wrap;html=1;strokeColor=#0070F2;fillColor=#EBF8FF;arcSize=24;absoluteArcSize=1;imageWidth=64;imageHeight=64;strokeWidth=1.5;" parent="SeBkJRlhaxik6qpEVH74-3" vertex="1">
          <mxGeometry x="-340" width="1468" height="960" as="geometry" />
        </mxCell>
        <mxCell id="SeBkJRlhaxik6qpEVH74-6" value="" style="rounded=1;whiteSpace=wrap;html=1;strokeColor=#0070F2;strokeWidth=1.5;arcSize=24;fillColor=#FFFFFF;perimeterSpacing=0;absoluteArcSize=1;" parent="SeBkJRlhaxik6qpEVH74-3" vertex="1">
          <mxGeometry x="799.04" y="50" width="299.52" height="803.01" as="geometry" />
        </mxCell>
        <mxCell id="SeBkJRlhaxik6qpEVH74-7" value="&lt;font style=&quot;font-size: 16px;&quot; face=&quot;arial&quot;&gt;&lt;b style=&quot;font-size: 16px;&quot;&gt;Global Account&lt;/b&gt;&lt;/font&gt;&lt;div&gt;&lt;font face=&quot;arial&quot;&gt;&lt;span style=&quot;font-size: 16px;&quot;&gt;&lt;b&gt;CA1092106TID000000000741080792&lt;/b&gt;&lt;/span&gt;&lt;/font&gt;&lt;br&gt;&lt;/div&gt;" style="text;html=1;align=center;verticalAlign=middle;resizable=0;points=[];autosize=1;strokeColor=none;fillColor=none;fontSize=12;fontColor=#1d2d3e;fontFamily=Helvetica;" parent="SeBkJRlhaxik6qpEVH74-3" vertex="1">
          <mxGeometry x="803.2872323769534" y="71.20426163653826" width="289" height="50" as="geometry" />
        </mxCell>
        <mxCell id="GFtdvAifXNPZdg2QPHuQ-47" value="" style="rounded=1;whiteSpace=wrap;html=1;strokeColor=#0070F2;fillColor=#EBF8FF;arcSize=24;absoluteArcSize=1;imageWidth=64;imageHeight=64;strokeWidth=1.5;" vertex="1" parent="SeBkJRlhaxik6qpEVH74-3">
          <mxGeometry x="830.29" y="140" width="235" height="260" as="geometry" />
        </mxCell>
        <mxCell id="GFtdvAifXNPZdg2QPHuQ-48" value="&lt;div&gt;&lt;div&gt;&lt;font style=&quot;&quot;&gt;&lt;b&gt;22 - Integration - DEV/QA -&amp;nbsp;&lt;/b&gt;&lt;/font&gt;&lt;span style=&quot;background-color: transparent;&quot;&gt;&lt;b&gt;s2078&lt;/b&gt;&lt;/span&gt;&lt;/div&gt;&lt;div&gt;&lt;font style=&quot;font-size: 10px;&quot;&gt;e38e7d07d&lt;/font&gt;&lt;/div&gt;&lt;/div&gt;" style="rounded=1;whiteSpace=wrap;html=1;strokeColor=#0070F2;strokeWidth=1.5;arcSize=16;fillColor=#ffffff;perimeterSpacing=0;absoluteArcSize=1;" vertex="1" parent="SeBkJRlhaxik6qpEVH74-3">
          <mxGeometry x="849.92" y="314" width="195.75" height="60" as="geometry" />
        </mxCell>
        <mxCell id="GFtdvAifXNPZdg2QPHuQ-49" value="&lt;b&gt;21 - Integration - PRD - y2127&lt;/b&gt;&lt;div&gt;&lt;div&gt;&lt;div&gt;&lt;font style=&quot;font-size: 10px;&quot;&gt;e6a163b1a&lt;/font&gt;&lt;/div&gt;&lt;/div&gt;&lt;/div&gt;" style="rounded=1;whiteSpace=wrap;html=1;strokeColor=#0070F2;strokeWidth=1.5;arcSize=16;fillColor=#ffffff;perimeterSpacing=0;absoluteArcSize=1;" vertex="1" parent="SeBkJRlhaxik6qpEVH74-3">
          <mxGeometry x="849.92" y="235" width="195.75" height="60" as="geometry" />
        </mxCell>
        <mxCell id="GFtdvAifXNPZdg2QPHuQ-50" value="&lt;div&gt;&lt;font style=&quot;&quot;&gt;&lt;b&gt;2 - Integration&lt;/b&gt;&lt;/font&gt;&lt;/div&gt;&lt;div&gt;&lt;font style=&quot;font-size: 12px;&quot;&gt;&lt;font style=&quot;&quot;&gt;Subdomain:&amp;nbsp;&lt;/font&gt;&lt;span style=&quot;background-color: transparent; color: light-dark(rgb(0, 0, 0), rgb(255, 255, 255));&quot;&gt;integrationsuite-3htudkiy&lt;/span&gt;&lt;/font&gt;&lt;/div&gt;" style="text;strokeColor=none;fillColor=none;html=1;align=center;verticalAlign=middle;whiteSpace=wrap;rounded=0;fontSize=16;" vertex="1" parent="SeBkJRlhaxik6qpEVH74-3">
          <mxGeometry x="855.79" y="170" width="176" height="30" as="geometry" />
        </mxCell>
        <mxCell id="SeBkJRlhaxik6qpEVH74-15" value="" style="rounded=1;whiteSpace=wrap;html=1;strokeColor=#0070F2;strokeWidth=1.5;arcSize=24;fillColor=#FFFFFF;perimeterSpacing=0;absoluteArcSize=1;" parent="SeBkJRlhaxik6qpEVH74-2" vertex="1">
          <mxGeometry x="-480" y="54.13" width="1074" height="875.87" as="geometry" />
        </mxCell>
        <mxCell id="GFtdvAifXNPZdg2QPHuQ-39" value="" style="group" vertex="1" connectable="0" parent="SeBkJRlhaxik6qpEVH74-2">
          <mxGeometry x="60" y="140" width="235" height="180" as="geometry" />
        </mxCell>
        <mxCell id="GFtdvAifXNPZdg2QPHuQ-16" value="" style="rounded=1;whiteSpace=wrap;html=1;strokeColor=#0070F2;fillColor=#EBF8FF;arcSize=24;absoluteArcSize=1;imageWidth=64;imageHeight=64;strokeWidth=1.5;movable=1;resizable=1;rotatable=1;deletable=1;editable=1;locked=0;connectable=1;" vertex="1" parent="GFtdvAifXNPZdg2QPHuQ-39">
          <mxGeometry width="235" height="180" as="geometry" />
        </mxCell>
        <mxCell id="GFtdvAifXNPZdg2QPHuQ-17" value="&lt;div&gt;&lt;span style=&quot;background-color: transparent;&quot;&gt;&lt;b&gt;31 - FRoSTA Data and Analytics&lt;/b&gt;&lt;/span&gt;&lt;/div&gt;&lt;div&gt;&lt;span style=&quot;background-color: transparent;&quot;&gt;&lt;b&gt;&lt;br&gt;&lt;/b&gt;&lt;/span&gt;&lt;/div&gt;&lt;div&gt;&lt;span style=&quot;font-size: 10px;&quot;&gt;6cc6b0d6-684c-4a95-bab3-8669a3f0d191&lt;/span&gt;&lt;/div&gt;" style="rounded=1;whiteSpace=wrap;html=1;strokeColor=#0070F2;strokeWidth=1.5;arcSize=16;fillColor=#ffffff;perimeterSpacing=0;absoluteArcSize=1;movable=1;resizable=1;rotatable=1;deletable=1;editable=1;locked=0;connectable=1;" vertex="1" parent="GFtdvAifXNPZdg2QPHuQ-39">
          <mxGeometry x="13.379999999999995" y="95" width="208.25" height="60" as="geometry" />
        </mxCell>
        <mxCell id="GFtdvAifXNPZdg2QPHuQ-18" value="&lt;div&gt;&lt;font style=&quot;background-color: transparent; color: light-dark(rgb(0, 0, 0), rgb(255, 255, 255));&quot;&gt;&lt;b&gt;3 - Database&lt;/b&gt;&lt;/font&gt;&lt;/div&gt;&lt;div&gt;&lt;font style=&quot;background-color: transparent; color: light-dark(rgb(0, 0, 0), rgb(255, 255, 255)); font-size: 13px;&quot;&gt;Subdomain:&amp;nbsp;&lt;/font&gt;&lt;span style=&quot;background-color: transparent; font-size: 13px;&quot;&gt;frosta-analytics-og2zzshh&lt;/span&gt;&lt;/div&gt;" style="text;strokeColor=none;fillColor=none;html=1;align=center;verticalAlign=middle;whiteSpace=wrap;rounded=0;fontSize=16;movable=1;resizable=1;rotatable=1;deletable=1;editable=1;locked=0;connectable=1;" vertex="1" parent="GFtdvAifXNPZdg2QPHuQ-39">
          <mxGeometry x="29.5" y="30" width="176" height="30" as="geometry" />
        </mxCell>
        <mxCell id="GFtdvAifXNPZdg2QPHuQ-43" value="" style="group" vertex="1" connectable="0" parent="SeBkJRlhaxik6qpEVH74-2">
          <mxGeometry x="-200" y="420" width="235" height="330" as="geometry" />
        </mxCell>
        <mxCell id="GFtdvAifXNPZdg2QPHuQ-20" value="" style="rounded=1;whiteSpace=wrap;html=1;strokeColor=#0070F2;fillColor=#EBF8FF;arcSize=24;absoluteArcSize=1;imageWidth=64;imageHeight=64;strokeWidth=1.5;" vertex="1" parent="GFtdvAifXNPZdg2QPHuQ-43">
          <mxGeometry width="235" height="330" as="geometry" />
        </mxCell>
        <mxCell id="GFtdvAifXNPZdg2QPHuQ-21" value="&lt;div&gt;&lt;font style=&quot;&quot;&gt;&lt;b&gt;61 - SAP Mobile Start PROD&lt;/b&gt;&lt;/font&gt;&lt;/div&gt;&lt;div&gt;&lt;span style=&quot;font-size: 10px;&quot;&gt;feee32c3-7126-431d-822e-32e631f5d19c&lt;/span&gt;&lt;/div&gt;" style="rounded=1;whiteSpace=wrap;html=1;strokeColor=#0070F2;strokeWidth=1.5;arcSize=16;fillColor=#ffffff;perimeterSpacing=0;absoluteArcSize=1;" vertex="1" parent="GFtdvAifXNPZdg2QPHuQ-43">
          <mxGeometry x="16.75" y="80" width="201.5" height="60" as="geometry" />
        </mxCell>
        <mxCell id="GFtdvAifXNPZdg2QPHuQ-22" value="&lt;b&gt;6 - WZ &amp;amp; Mobile Start&lt;/b&gt;" style="text;strokeColor=none;fillColor=none;html=1;align=center;verticalAlign=middle;whiteSpace=wrap;rounded=0;fontSize=16;" vertex="1" parent="GFtdvAifXNPZdg2QPHuQ-43">
          <mxGeometry x="29.5" y="19" width="176" height="30" as="geometry" />
        </mxCell>
        <mxCell id="GFtdvAifXNPZdg2QPHuQ-23" value="&lt;div&gt;&lt;div&gt;&lt;font style=&quot;font-size: 10px;&quot;&gt;&lt;div style=&quot;font-size: 12px;&quot;&gt;&lt;b&gt;62 - SAP Mobile Start TEST&lt;/b&gt;&lt;/div&gt;7ac84626-d04f-44d7-87af-010e919bc98c&lt;/font&gt;&lt;/div&gt;&lt;/div&gt;" style="rounded=1;whiteSpace=wrap;html=1;strokeColor=#0070F2;strokeWidth=1.5;arcSize=16;fillColor=#ffffff;perimeterSpacing=0;absoluteArcSize=1;" vertex="1" parent="GFtdvAifXNPZdg2QPHuQ-43">
          <mxGeometry x="16.75" y="160" width="201.5" height="60" as="geometry" />
        </mxCell>
        <mxCell id="GFtdvAifXNPZdg2QPHuQ-24" value="&lt;font style=&quot;&quot;&gt;&lt;div style=&quot;&quot;&gt;&lt;b&gt;63 - SAP Mobile Start DEV&lt;/b&gt;&lt;/div&gt;&lt;span style=&quot;font-size: 10px;&quot;&gt;7ecdc754-1ce5-40a9-b9bd-9acfc5c52238&lt;/span&gt;&lt;/font&gt;" style="rounded=1;whiteSpace=wrap;html=1;strokeColor=#0070F2;strokeWidth=1.5;arcSize=16;fillColor=#ffffff;perimeterSpacing=0;absoluteArcSize=1;" vertex="1" parent="GFtdvAifXNPZdg2QPHuQ-43">
          <mxGeometry x="16.75" y="240" width="201.5" height="60" as="geometry" />
        </mxCell>
        <mxCell id="GFtdvAifXNPZdg2QPHuQ-45" value="" style="group" vertex="1" connectable="0" parent="SeBkJRlhaxik6qpEVH74-2">
          <mxGeometry x="330" y="140" width="235" height="250" as="geometry" />
        </mxCell>
        <mxCell id="GFtdvAifXNPZdg2QPHuQ-10" value="" style="rounded=1;whiteSpace=wrap;html=1;strokeColor=#0070F2;fillColor=#EBF8FF;arcSize=24;absoluteArcSize=1;imageWidth=64;imageHeight=64;strokeWidth=1.5;" vertex="1" parent="GFtdvAifXNPZdg2QPHuQ-45">
          <mxGeometry width="235" height="250" as="geometry" />
        </mxCell>
        <mxCell id="GFtdvAifXNPZdg2QPHuQ-11" value="&lt;div&gt;&lt;div&gt;&lt;font style=&quot;&quot;&gt;&lt;b&gt;41 - Admin Services - PRD&lt;/b&gt;&lt;/font&gt;&lt;/div&gt;&lt;div&gt;&lt;font style=&quot;font-size: 10px;&quot;&gt;03ab6456-df36-40c7-b207-7c3c5fc2b9de&lt;/font&gt;&lt;/div&gt;&lt;/div&gt;" style="rounded=1;whiteSpace=wrap;html=1;strokeColor=#0070F2;strokeWidth=1.5;arcSize=16;fillColor=#ffffff;perimeterSpacing=0;absoluteArcSize=1;" vertex="1" parent="GFtdvAifXNPZdg2QPHuQ-45">
          <mxGeometry x="19.75" y="80" width="195.5" height="60" as="geometry" />
        </mxCell>
        <mxCell id="GFtdvAifXNPZdg2QPHuQ-12" value="&lt;div&gt;&lt;font style=&quot;&quot;&gt;&lt;b&gt;4 - Admin Services&lt;/b&gt;&lt;/font&gt;&lt;/div&gt;&lt;div&gt;&lt;font style=&quot;font-size: 13px;&quot;&gt;Subdomain:&amp;nbsp;&lt;/font&gt;&lt;span style=&quot;background-color: transparent; color: light-dark(rgb(0, 0, 0), rgb(255, 255, 255)); font-size: 13px;&quot;&gt;frosta-admin&lt;/span&gt;&lt;/div&gt;" style="text;strokeColor=none;fillColor=none;html=1;align=center;verticalAlign=middle;whiteSpace=wrap;rounded=0;fontSize=16;" vertex="1" parent="GFtdvAifXNPZdg2QPHuQ-45">
          <mxGeometry x="25.5" y="20" width="176" height="30" as="geometry" />
        </mxCell>
        <mxCell id="GFtdvAifXNPZdg2QPHuQ-13" value="&lt;div&gt;&lt;div&gt;&lt;font style=&quot;&quot;&gt;&lt;b&gt;42 - Admin Services - TEST&lt;/b&gt;&lt;/font&gt;&lt;/div&gt;&lt;div&gt;&lt;font style=&quot;font-size: 10px;&quot;&gt;c898f51b-519c-4617-b742-7974ab6f7f23&lt;/font&gt;&lt;/div&gt;&lt;/div&gt;" style="rounded=1;whiteSpace=wrap;html=1;strokeColor=#0070F2;strokeWidth=1.5;arcSize=16;fillColor=#ffffff;perimeterSpacing=0;absoluteArcSize=1;" vertex="1" parent="GFtdvAifXNPZdg2QPHuQ-45">
          <mxGeometry x="19.75" y="159" width="195.5" height="60" as="geometry" />
        </mxCell>
        <mxCell id="GFtdvAifXNPZdg2QPHuQ-4" value="" style="rounded=1;whiteSpace=wrap;html=1;strokeColor=#0070F2;fillColor=#EBF8FF;arcSize=24;absoluteArcSize=1;imageWidth=64;imageHeight=64;strokeWidth=1.5;" vertex="1" parent="SeBkJRlhaxik6qpEVH74-2">
          <mxGeometry x="-200" y="140" width="235" height="260" as="geometry" />
        </mxCell>
        <mxCell id="GFtdvAifXNPZdg2QPHuQ-7" value="&lt;div&gt;&lt;div&gt;&lt;font style=&quot;&quot;&gt;&lt;b&gt;22 - Integration - DEV/QA&lt;/b&gt;&lt;/font&gt;&lt;/div&gt;&lt;div&gt;&lt;font style=&quot;&quot;&gt;&lt;b&gt;&lt;br&gt;&lt;/b&gt;&lt;/font&gt;&lt;/div&gt;&lt;div&gt;&lt;font style=&quot;font-size: 10px;&quot;&gt;a88dc41f-3559-45de-a6f4-ad317f775336&lt;/font&gt;&lt;/div&gt;&lt;/div&gt;" style="rounded=1;whiteSpace=wrap;html=1;strokeColor=#0070F2;strokeWidth=1.5;arcSize=16;fillColor=#ffffff;perimeterSpacing=0;absoluteArcSize=1;" vertex="1" parent="SeBkJRlhaxik6qpEVH74-2">
          <mxGeometry x="-180.37" y="314" width="195.75" height="60" as="geometry" />
        </mxCell>
        <mxCell id="GFtdvAifXNPZdg2QPHuQ-5" value="&lt;b&gt;21 - Integration - PRD&lt;/b&gt;&lt;div&gt;&lt;b&gt;&lt;br&gt;&lt;/b&gt;&lt;div&gt;&lt;div&gt;&lt;font style=&quot;font-size: 10px;&quot;&gt;ee6f0d30-605c-4acd-9f1b-6056a78ecad1&lt;/font&gt;&lt;/div&gt;&lt;/div&gt;&lt;/div&gt;" style="rounded=1;whiteSpace=wrap;html=1;strokeColor=#0070F2;strokeWidth=1.5;arcSize=16;fillColor=#ffffff;perimeterSpacing=0;absoluteArcSize=1;" vertex="1" parent="SeBkJRlhaxik6qpEVH74-2">
          <mxGeometry x="-180.37" y="235" width="195.75" height="60" as="geometry" />
        </mxCell>
        <mxCell id="GFtdvAifXNPZdg2QPHuQ-6" value="&lt;div&gt;&lt;font style=&quot;&quot;&gt;&lt;b&gt;2 - Integration&lt;/b&gt;&lt;/font&gt;&lt;/div&gt;&lt;div&gt;&lt;font style=&quot;font-size: 12px;&quot;&gt;&lt;font style=&quot;&quot;&gt;Subdomain:&amp;nbsp;&lt;/font&gt;&lt;span style=&quot;background-color: transparent; color: light-dark(rgb(0, 0, 0), rgb(255, 255, 255));&quot;&gt;integrationsuite-3htudkiy&lt;/span&gt;&lt;/font&gt;&lt;/div&gt;" style="text;strokeColor=none;fillColor=none;html=1;align=center;verticalAlign=middle;whiteSpace=wrap;rounded=0;fontSize=16;" vertex="1" parent="SeBkJRlhaxik6qpEVH74-2">
          <mxGeometry x="-174.5" y="170" width="176" height="30" as="geometry" />
        </mxCell>
        <mxCell id="GFtdvAifXNPZdg2QPHuQ-42" value="" style="group" vertex="1" connectable="0" parent="SeBkJRlhaxik6qpEVH74-2">
          <mxGeometry x="-460" y="570" width="235" height="330" as="geometry" />
        </mxCell>
        <mxCell id="GFtdvAifXNPZdg2QPHuQ-26" value="" style="rounded=1;whiteSpace=wrap;html=1;strokeColor=#0070F2;fillColor=#EBF8FF;arcSize=24;absoluteArcSize=1;imageWidth=64;imageHeight=64;strokeWidth=1.5;" vertex="1" parent="GFtdvAifXNPZdg2QPHuQ-42">
          <mxGeometry width="235" height="330" as="geometry" />
        </mxCell>
        <mxCell id="GFtdvAifXNPZdg2QPHuQ-27" value="&lt;div&gt;&lt;div&gt;&lt;font style=&quot;&quot;&gt;&lt;b&gt;51 - EPD - PRD&lt;/b&gt;&lt;/font&gt;&lt;/div&gt;&lt;div&gt;&lt;font style=&quot;font-size: 10px;&quot;&gt;6b564bcd-17a1-4861-af71-0cde2f8b6dc1&lt;/font&gt;&lt;/div&gt;&lt;/div&gt;" style="rounded=1;whiteSpace=wrap;html=1;strokeColor=#0070F2;strokeWidth=1.5;arcSize=16;fillColor=#ffffff;perimeterSpacing=0;absoluteArcSize=1;" vertex="1" parent="GFtdvAifXNPZdg2QPHuQ-42">
          <mxGeometry x="16.75" y="80" width="201.5" height="60" as="geometry" />
        </mxCell>
        <mxCell id="GFtdvAifXNPZdg2QPHuQ-28" value="&lt;b&gt;5 - Enterprise Product Development&lt;/b&gt;" style="text;strokeColor=none;fillColor=none;html=1;align=center;verticalAlign=middle;whiteSpace=wrap;rounded=0;fontSize=16;" vertex="1" parent="GFtdvAifXNPZdg2QPHuQ-42">
          <mxGeometry x="25.5" y="20" width="176" height="30" as="geometry" />
        </mxCell>
        <mxCell id="GFtdvAifXNPZdg2QPHuQ-29" value="&lt;div&gt;&lt;div&gt;&lt;font style=&quot;&quot;&gt;&lt;b&gt;52 - EPD - TEST&lt;/b&gt;&lt;/font&gt;&lt;/div&gt;&lt;div&gt;&lt;font style=&quot;font-size: 10px;&quot;&gt;ead4278d-281e-48c4-8e1b-8a32229d5019&lt;/font&gt;&lt;/div&gt;&lt;/div&gt;" style="rounded=1;whiteSpace=wrap;html=1;strokeColor=#0070F2;strokeWidth=1.5;arcSize=16;fillColor=#ffffff;perimeterSpacing=0;absoluteArcSize=1;" vertex="1" parent="GFtdvAifXNPZdg2QPHuQ-42">
          <mxGeometry x="16.75" y="160" width="201.5" height="60" as="geometry" />
        </mxCell>
        <mxCell id="GFtdvAifXNPZdg2QPHuQ-30" value="&lt;div&gt;&lt;div&gt;&lt;font style=&quot;&quot;&gt;&lt;b&gt;53 - EPD - DEV&lt;/b&gt;&lt;/font&gt;&lt;/div&gt;&lt;div&gt;&lt;font style=&quot;font-size: 10px;&quot;&gt;39c9c7ae-d36a-49b9-a1e9-310c58b44468&lt;/font&gt;&lt;/div&gt;&lt;/div&gt;" style="rounded=1;whiteSpace=wrap;html=1;strokeColor=#0070F2;strokeWidth=1.5;arcSize=16;fillColor=#ffffff;perimeterSpacing=0;absoluteArcSize=1;" vertex="1" parent="GFtdvAifXNPZdg2QPHuQ-42">
          <mxGeometry x="16.75" y="240" width="201.5" height="60" as="geometry" />
        </mxCell>
        <mxCell id="GFtdvAifXNPZdg2QPHuQ-32" value="" style="rounded=1;whiteSpace=wrap;html=1;strokeColor=#0070F2;fillColor=#EBF8FF;arcSize=24;absoluteArcSize=1;imageWidth=64;imageHeight=64;strokeWidth=1.5;" vertex="1" parent="SeBkJRlhaxik6qpEVH74-2">
          <mxGeometry x="70" y="350" width="235" height="410" as="geometry" />
        </mxCell>
        <mxCell id="GFtdvAifXNPZdg2QPHuQ-34" value="&lt;b&gt;9 - Others&lt;/b&gt;" style="text;strokeColor=none;fillColor=none;html=1;align=center;verticalAlign=middle;whiteSpace=wrap;rounded=0;fontSize=16;" vertex="1" parent="SeBkJRlhaxik6qpEVH74-2">
          <mxGeometry x="95.5" y="370" width="176" height="30" as="geometry" />
        </mxCell>
        <mxCell id="GFtdvAifXNPZdg2QPHuQ-33" value="&lt;div&gt;&lt;div&gt;&lt;font style=&quot;&quot;&gt;&lt;b&gt;Cloud Platform Integration PRD - l100836&lt;/b&gt;&lt;/font&gt;&lt;/div&gt;&lt;div&gt;&lt;font style=&quot;font-size: 10px;&quot;&gt;aa5a4a76c&lt;/font&gt;&lt;/div&gt;&lt;/div&gt;" style="rounded=1;whiteSpace=wrap;html=1;strokeColor=#0070F2;strokeWidth=1.5;arcSize=16;fillColor=#ffffff;perimeterSpacing=0;absoluteArcSize=1;" vertex="1" parent="SeBkJRlhaxik6qpEVH74-2">
          <mxGeometry x="86.75" y="430" width="201.5" height="60" as="geometry" />
        </mxCell>
        <mxCell id="GFtdvAifXNPZdg2QPHuQ-35" value="&lt;div&gt;&lt;font style=&quot;&quot;&gt;&lt;b&gt;SAP-DRC-Test&lt;/b&gt;&lt;/font&gt;&lt;/div&gt;&lt;div&gt;&lt;span style=&quot;font-size: 10px;&quot;&gt;05748f00-945e-41d9-924b-b7f08ddd03bc&lt;/span&gt;&lt;/div&gt;" style="rounded=1;whiteSpace=wrap;html=1;strokeColor=#0070F2;strokeWidth=1.5;arcSize=16;fillColor=#ffffff;perimeterSpacing=0;absoluteArcSize=1;" vertex="1" parent="SeBkJRlhaxik6qpEVH74-2">
          <mxGeometry x="86.75" y="510" width="201.5" height="60" as="geometry" />
        </mxCell>
        <mxCell id="GFtdvAifXNPZdg2QPHuQ-36" value="&lt;div&gt;&lt;font style=&quot;&quot;&gt;&lt;b&gt;SAP-DRC-PRD&lt;/b&gt;&lt;/font&gt;&lt;/div&gt;&lt;div&gt;&lt;span style=&quot;font-size: 10px;&quot;&gt;fe57d939-76e4-4993-9beb-8f249cdce36b&lt;/span&gt;&lt;/div&gt;" style="rounded=1;whiteSpace=wrap;html=1;strokeColor=#0070F2;strokeWidth=1.5;arcSize=16;fillColor=#ffffff;perimeterSpacing=0;absoluteArcSize=1;" vertex="1" parent="SeBkJRlhaxik6qpEVH74-2">
          <mxGeometry x="86.75" y="590" width="201.5" height="60" as="geometry" />
        </mxCell>
        <mxCell id="GFtdvAifXNPZdg2QPHuQ-37" value="&lt;div&gt;&lt;font style=&quot;&quot;&gt;&lt;b&gt;Label Printing Solution&lt;/b&gt;&lt;/font&gt;&lt;/div&gt;&lt;div&gt;&lt;span style=&quot;font-size: 10px;&quot;&gt;cafdd082-e5c8-44e8-8b64-be9509fd79cc&lt;/span&gt;&lt;/div&gt;" style="rounded=1;whiteSpace=wrap;html=1;strokeColor=#0070F2;strokeWidth=1.5;arcSize=16;fillColor=#ffffff;perimeterSpacing=0;absoluteArcSize=1;" vertex="1" parent="SeBkJRlhaxik6qpEVH74-2">
          <mxGeometry x="86.75" y="670" width="201.5" height="60" as="geometry" />
        </mxCell>
        <mxCell id="SeBkJRlhaxik6qpEVH74-16" value="&lt;font style=&quot;font-size: 16px;&quot; face=&quot;arial&quot;&gt;&lt;b style=&quot;font-size: 16px;&quot;&gt;Global Account&lt;/b&gt;&lt;/font&gt;&lt;div&gt;&lt;font face=&quot;arial&quot;&gt;&lt;span style=&quot;font-size: 16px;&quot;&gt;&lt;b&gt;CA1092106TID000000000740620690&lt;/b&gt;&lt;/span&gt;&lt;/font&gt;&lt;/div&gt;" style="text;html=1;align=center;verticalAlign=middle;resizable=0;points=[];autosize=1;strokeColor=none;fillColor=none;fontSize=12;fontColor=#1d2d3e;fontFamily=Helvetica;" parent="SeBkJRlhaxik6qpEVH74-2" vertex="1">
          <mxGeometry x="-87.5" y="70" width="289" height="50" as="geometry" />
        </mxCell>
        <mxCell id="SeBkJRlhaxik6qpEVH74-86" value="" style="shape=image;aspect=fixed;image=data:image/png,iVBORw0KGgoAAAANSUhEUgAAAF4AAABWCAYAAABGgSEDAAAABGdBTUEAALGPC/xhBQAAACBjSFJNAAB6JgAAgIQAAPoAAACA6AAAdTAAAOpgAAA6mAAAF3CculE8AAAAhGVYSWZNTQAqAAAACAAFARIAAwAAAAEAAQAAARoABQAAAAEAAABKARsABQAAAAEAAABSASgAAwAAAAEAAgAAh2kABAAAAAEAAABaAAAAAAAAASwAAAABAAABLAAAAAEAA6ABAAMAAAABAAEAAKACAAQAAAABAAAAXqADAAQAAAABAAAAVgAAAABqXVxRAAAACXBIWXMAAC4jAAAuIwF4pT92AAACymlUWHRYTUw6Y29tLmFkb2JlLnhtcAAAAAAAPHg6eG1wbWV0YSB4bWxuczp4PSJhZG9iZTpuczptZXRhLyIgeDp4bXB0az0iWE1QIENvcmUgNi4wLjAiPgogICA8cmRmOlJERiB4bWxuczpyZGY9Imh0dHA6Ly93d3cudzMub3JnLzE5OTkvMDIvMjItcmRmLXN5bnRheC1ucyMiPgogICAgICA8cmRmOkRlc2NyaXB0aW9uIHJkZjphYm91dD0iIgogICAgICAgICAgICB4bWxuczp0aWZmPSJodHRwOi8vbnMuYWRvYmUuY29tL3RpZmYvMS4wLyIKICAgICAgICAgICAgeG1sbnM6ZXhpZj0iaHR0cDovL25zLmFkb2JlLmNvbS9leGlmLzEuMC8iPgogICAgICAgICA8dGlmZjpZUmVzb2x1dGlvbj4zMDA8L3RpZmY6WVJlc29sdXRpb24+CiAgICAgICAgIDx0aWZmOlJlc29sdXRpb25Vbml0PjI8L3RpZmY6UmVzb2x1dGlvblVuaXQ+CiAgICAgICAgIDx0aWZmOlhSZXNvbHV0aW9uPjMwMDwvdGlmZjpYUmVzb2x1dGlvbj4KICAgICAgICAgPHRpZmY6T3JpZW50YXRpb24+MTwvdGlmZjpPcmllbnRhdGlvbj4KICAgICAgICAgPGV4aWY6UGl4ZWxYRGltZW5zaW9uPjk0PC9leGlmOlBpeGVsWERpbWVuc2lvbj4KICAgICAgICAgPGV4aWY6Q29sb3JTcGFjZT4xPC9leGlmOkNvbG9yU3BhY2U+CiAgICAgICAgIDxleGlmOlBpeGVsWURpbWVuc2lvbj44NjwvZXhpZjpQaXhlbFlEaW1lbnNpb24+CiAgICAgIDwvcmRmOkRlc2NyaXB0aW9uPgogICA8L3JkZjpSREY+CjwveDp4bXBtZXRhPgqRfUVrAAAov0lEQVR4Ae19B2AdxbX2d4t6L5bl3uRuuVdCM8E4EHowIY/iQIAklBBCQiolEP4EktAJIQmhJTiER+ARmgEXmjG4yL1ItiyrV8vq0tW9d//vm70rq1zJsjF5L4Gx587s7MyZme+cOXNmdnfkQjdnWZbH5XIFmWzp1ubdpScEEDwdcM1m+miP2zWUyS7d+9wJAQuW5XIzrAkEURi0rFy4gqvTIqNeGTUqo1w5VlmWd6HL5VfccV0AJOhegmsybM4r/0bACt6YGB83OS05EVERAKnDCnYp79D5zIdut4cAueAPAI2tfpRVVDUHLTyVERt/y9ChiTXhwDegrV+/ntACO/dWjdu4q2R92cF2q6ktaPkDQT8Z4qNvpw/Qk6mfuzAICBthJZzaW9rardpmy8rJLT24Nb9ikbB1MFbcOCdhW0HZwk25Ze11LQbbthAhg3QwGLT4vwP1z9EnOnTCwXhhE/Lmhp3cVt/ss3YXH7S27ik9T2A7WLtWrVrlXbhwoT+voHJGsz+wccSgVCTFRvqYJ9Kilnd1UUaGT5//9AMBgk/sDHj+hmafd3/FQUS5XDPGjcrYxHsec4eRiE25pbtHDx84KjHa0066Ru30g/7nWQ6DQEh42xvaghF5BWXbZk0Ymq0imi+xMbf0p8OHDhbobbz8HHSBcoxcSGNEJES5fUMHZ06hgF8t0u5Sy4qlifjNGK8sSERoiHzuji0CIUw9iTEeBILB60XdW5pbdlpmekpmTKRbdqLMyS61qlB/meF2u03e3vK7ZP7rf7c6ulR4DC7sNovQsRAiF9w0Ezlx9qCnfvSnL6E87ki3FUxOTJiSs7PkOK/LCp6clBBtWhnSR4obpw70l7hTpj/5bWAsdshoOqfoJw4707V521WIPkkFAj/cutHB6HC0BSVp+AekJrrrGhoXe1kgO8Luf5dWOgRbWlpRsK/Ylnrl6C5E7CHtKHi9XoyfMBplZZWoqjqACF6LhuO8EV7ExkQjiYuxhIQ4w1CnDifPJwkdWmJ8c3Mrqqtq0NjU3LO9/a1E/bKC8Hi8GDduJPbvL0FTYzPcHi6U6GheIzUlCYOHDOwvReVzaSFKWOZKtaQbZnZip9MJn68dP7r5Pjz48H+zTDp9uFWrGlKLsUMmIrf4aby5/F18/fIlTPsyfQu948TjaJx8/GB8+exZOP8rp2H06OGGOQLrkzipAUlka2sbXvzHm3jqz29i+YoCklT9h5h/ZHVEMfu7+MmP7sTPbr0GX1zwE+yryGNaIr3mQ/W7EWs+eAgLjptpGNGPEex2sTmcU8cTeMSSgpxRwXbU/q2srCboK3Dc3Blo9wWNnvPQAo2IZKWh/ng5XKorMzFlWqYpFBOjBp+Ck74wBI0NPgOI8gQDFtpaA8jfdRA/eP/v+MHNT2Hlinuw8JQFnwh8CYlAb6hvxA3X340nnn4Vw1LHY/qkNLaTQznsKGUT2X6V7eyMAITyJyRGYuW7U3D2OSejoqKKoOezT9Mo9e2mXEysF++vLcdTT/4T8xfMZBsOozZt2XIH/O1q7whJfFqAGwwEs4fY2ZKYiKYGvwFegllX047i2ga218kuztcjMUmAUxZMZ1rR2uJHc2MA/vYg8oqaEUMJmZgdj7SBURg0fBjamX7KF29E7u5lGDtuVA+JcSazzh3S8Fa9Atpxzmi5/76nCPoKnHLiXFSUNlNF2BOiry0QdgJUM9U2x+naG0HaLCfqDfVaQyZjTNZISvUGxtsoOH5i0W4Y2tLUhqkTU/H8H3fi53dUYWDmgH4JkFhNhru8rORQ7Uzs6bjrQ/EQQwX6lNnpuHj6bAS4FSdGqONtbe1ITdUQNFntkL/qdFpGNK5alIX6+mY89987OLxiMDIrBvEJWi4k4+/PvY6f3nJNBziOFNrg2gArTfU4THDyCCzl271rL269/TmOzMko2teImDgPNmytVgvoE+jDddGNCaNieI9OdAj4ztxWUFSYILVYjSuWHo+kxAS89eZaXg82I9bXFkRZfhuGjI1GTIwXB5CH3LyCfgNv98jU4ERJuxcnLsXGR2BbXgl+ePbpuPa6yzihapo+VNaWUJAhYpQHkVEe7C1pxOKzJuC+B35kgLvjriL84HsP4sPlpYgY68bIgal4a/kWfOe7TWbCDZKZbo89ZDWZrft4M3bu2IcDBxqQkhKPiZNGY+68aRgxYohpaVB1cVcwJ2cnry2qsyDb6cXmnbW4/bbFWLr0XERGRtgqxTRVE6ZlDIEDNbVYcs4vOJL9SEqJxPotlXhn9W2sI4sA+8wITElJRA3zPfy7DVRdqagua0PW5GScduZgPPPYVgphpJDB+o+34oQT5nQIj2lc9x+B6MBFIRJrj845RDpKd6bckcidUs4JtGgkseOoUr597bl4+dUfIStushk173xQjYYGG3iBrgnyyT+/wHxPk0gTvSRWzZQk1tPH45GHL8UVV1yAaDOfAJUVNUyPIj0zjBkHrr/+EqSmJZt4uJ/4uBi2iWOBg8HjFbNbMWRoJgYMSO2Sff36rbyuRGJyBjbtKMfSE+fj3HO/iEcfW01GJyAjKg1vvLYRV3/rIsTFxfZL3aiCowe+S/N6u6CeJT+kliSRMjnj4zWX85qdtvUzJ20zSmgj0Fy76bv34A+Pv4450yczv5t6123ySVKlk0Xr2usexMYNubj/gZupsuIOSZJRiZKIINZv2IrTTjvBNExlNRpoSJt2SGW10WKTE/gSGQ4dSr+dplHrqLZ1lGaA5q8ZiHWYNm0ssrPHI3vcMJQXNmN0dgLeXLkDhftLzWhRXXa/DNFefwy5Xu92uWFLtFSMnADo7FVhT0f7nlLs9XoM6Lr/8Udb+JtsQNSkPWd6ChIS403Re3/zBEF/i9bDdLQ2B8wE996H+Xh3zRYorK/zoYXpJx43HY8/sRL33P0nUy5r7HCGDYiK9nJC92NSVgoWL74Ld/z8EWzbttu2xtiGzqpRI9E4NjsU6wSYPZ9oJL7+ykYMTkyFjxaZRtWEiWOoRiNwwddmo5BqKIoqFWjHlq27bHr9/O23xDexQyMzMmgnr8WuXUVGgiQuEREe7C+oxo9/ehnmzZ8ekm4NYTEiAnX1Tdi7dz+am1qwatVHuOkHL2PqhEwzxPNL63DhJTORlJSADRzSt/38SRw/fwZqqlpRnNuCg5zqHnzgMowaNYSLuBJcf8PLVDyUlXFgvgm4867H8ZULFmHhwgWsawj25zZgyKg4HGD5mdmDcNvtr9I/j6u+cTKuvPo8zJ07LST1zO6gHQYoR4j2FxRj9Qe7sGB2FvbvbsQpJ0zC8OGDTYnjKBzAs/b8gVS8984mLFlyhjEA1PM+yJvy/QZednhsghd7ttVh5TulHaQzoqJQ2fYBrv/uBYag02jZ/RNHx+K9twuQ9cy3eU/6ORbZ4wdxYubg5SQIFOKir/FxLt3zf3+TvxnGEqrhJDZ5bjKeevZnGDNG0my7L5+5EJdd/Avs3V6HGFN+OJ599jXcfc/3kbPxTsyY+R0UHYjBvFkDEfBbmM21hayVPz6+hf5FPPTATZw7Lqap6QkB5lAOH27eLCkOmJFU2lCD7521CIm0cuQ0CQMD0cBROGVcEh55dBOts2oMGpShicbWYSZn+J9+qxrpLXUmeUAEzbYBWDAnnZKQjqkLNBlJH2vI0TmsZqiJKzrWgxmTMzB3xjjMmjrEdLi6tI3q42UuPn6OadMnoba2Dstf2YasYckaRChrKMN9D11rQJe+lf2ucNToYbjvwWvNfRlUY5n/tZe20fI4iOkzJiM//0ncdOOJ+GjDXqzfXGjMv7aWAEdYAtXXfI6YO/HkEy+YZjqaUdLZ3XmoHlXfO6tzeCs9NIrrydiJJqvuZQxIw+WXTUEOhSA1TXtdxcjN3WfuO8JnLnr56Tfw0u3eSBdKdrdhzceF+HBdMT5cX4S3V5eR9JvGLLNr7VqTGiEG1Ne2E4ggakp9OG7RUKqdl3DZUvM0DAdr67FpZxVS0qJQlNeERQuzMXkK9QmdJkLH61rpZyyehj2bGpGSHkUTt5JrBC3oQJU0DL+592Zs3/5HPHD/pdi6u4mmZZ3R3eUlzRwJJ+LKqx5HZWUNdXMk6qr9oUnTFO/4kZCVl1VxlGzC9MlJRvUNSRyDWbOzTR6NmAiaqWefq8m7PGQVJXD+0kQsYXekz1yG/em3qpF9vGFrFW6/dTH3Ys6Hr73dVKAq/IF7O8wwSYtxFCUZEb5WC7vym5A9IdbkL2tspR0+ACefPJ/ZJG98Mu+XqdjODrhQygl3YWZix2RsaClXqDPafMsclITqQDHGaflHM7O9XeXtNYRAmTRprPEXLDkdt93yCP70522U+nhj2kJLntx8zJo1FY0HA4hJCI1UEeiE167de5lQgdi4dFTsb8TUeen4cM0GWlncU6dhEU3GlZZWMk8GJ30uqJLT8carG/Hta5poucWZke20WaS7u34DL7NOdnUmn8mOGDmkO52Oa6cyLaB25h/E9757PAYPHoDv37yMOncY5s5Mw733P8+NpakQMHKxtH9lsrVSLUzOisWry2jBPNiA9PRUo2YEpoa3wrq6BvzPk3toucShhdsSmjdsE1WUpF7t5wcKBw/OwI3fu4TAX0mbPymkMjyorj5o8kVHcw+JozGcuvnoQ1lfSUZdJWdEYA8XZaef8ROmsYB5cKdVcQamTRyAxno/Bo2I4d7OTrOLOXnyuMMC339VY1rnoXTJrLKlS7q3w1MKOjtbQLUH5MU3rlrCPZSxKNjeRDPRz+E7BUsufAj79hWZIlohnn/OKOzf3oyE5EhaM1W0nt4y9wS2nBO+9NLbqOGCJik5Cju3NeGrF4xDdHQ0CgtLTR4x3k2j2xEAPxl2yEmkaeJyQSfp5osrzHdI0J3V98GD9Xj15RyMykxFSxMZzvVEcnok54ls7q5OM+HCE2bjuDmDTT0a2dob0ujbYibkQzX2Fus38DYBu6GKO3rXCU0PetQSSf1Yj+TkBPz63mtQ7S/kPgpXsWZMR+CeXz5Be96P2NgYfPms+dxc1nwBLs+H4epvPoHH//R3SmetWc3WMPzz488bHT198jAjpa3Yh68sOYmS30L1dQ5ef201F2Fc7RIDtau0pAK/vecZUhxg7H8bHAsDB6aZNvgM8M7TJS/Bs+GQQKxZl4v0zGgzB+yjabthSwne+WA/Vr+/34Sr3itgniKuZquMlaadVyAN79KslCpS/X25fqka8fLwztbXXfNZNMUiqMMDmDlrCh5+8Bpc950/08IZjfmzB+D3f3wdp5w6m9J/BofxSSz6N7PtqvqmT8okyI/hpqv+gUXnDcOqF4so6VWYRqbIumpuameuQVj8pZPwjxfeYDwSZ3z5Lnxh7iicftZ0mqV+3PmL98mgdqqDRKqxINoiBc4wWksjzLySlG5337ZwXB3Ab8rZwXwW1ZMX6zZV4I7bz8DSr58Hn8/XMZKkyiIiIjhRV+P80+42DJo+KRm//8Mm3HJbFdXcwD7VTT+Al860dSdb009nl+meeSkn5RdfWIsta2jvjonGjCnjceFXH0TezEnI4vbryhXf51bxlVzNzjOKd870EWYb9uUXCzBmdDRGJ44wJKUePs55FWvXLkdZaQUuv+LXOOWkmUaNFeU34Ge3vMx8bs4X6VQrsWaVPGREPNcf73LU/JwbbrRUuOqMS/JQh2uekNDwaZNew6Nb+fZG/qaZOMjuUxfNx/AR9sIplNgRaL47578m0Y5fhxMXDGR6GReYew8LfJ/jQZIXz6dGCUmR3BPRThx31UM6t6PmbhF7iMVywygCae5os0GmNM0Fmu1/fd81qGovRmo66fJhQ2ZsMu79zTNmeOqhyBuvP0opy8e6zWVmsk2kzp8zL5k7iFHmet2mcoK+B6+9+hzmzZuOFm6qDU3KIqhbkbepHpnDYqiDR9APM+2WpVRT5uP9d3DLT6/GxZecY1qsOUC7kinU3fGJepbgNVsB1Xxs+ZdlO7gtQfvdH8SIAWPMCFEhTfCaB5x5TddyJ540g7/NiEsQnQzkbNBuKTWeJKQ3tzmvrLqlTa/8mTfQFFrUUSYsLCyhKGTSn0R/qsTC+tUvf2/usXITOj9shIn+4bFnTT7gDIaDra+ce5NFVWPuOXl+/6iTZyHznGby/+GxvzmkrD17Cqxbb3mA6UvoT6T/Qij8inXrzx6w8vIKutCrPVBnPfP0i9ZZZ9zAfKr3+FAZhadb55x5o/XKP1ewX3Y7VJhzB++pX/Pov0gPq6S43Fr+xjsmDpzJMNK6+srbO9rVPeLQ27EjL1RGGM2m/5J14MBBk93ByYGrpdVnbd5TFnQJ+HHDB6RFR3qkUQyPWMJwq4kPi7dvz+UQ5MAg8zQRptHEk1royBziqFOmoKAI5eVViKT+k0WhB9yTqVLEfSdPc3MLtnJTSatdQ4c09ORq2rRJZv88RBIVpFNWXmnsdOnTTD7lkZeT1NkjyX70pzQ9mFfdtQcOkp4e1LiRkmw/kI6OljSqnJ2/rc1n2kC8TdvUtynZE7nFXGUe9UXSTtcz58yBAzCSCzOn7YZIt59wtCZOGsfthfiOcg5erXxolFtcY4UFvhvdfl/21TiHSH/y2KBqmIYfqg7onWmKbl+WhMqI+X0Of4dgt7A/be5WxFw6YOvCiTvAH3ZyVYM7u74ar3tqpHxn1xmQ3vIov5PPCbvTcup27jt1OOnd83e+372M7nXvm/J0p+HQdmj1FnanpdFm1EcvBQ4LfLgG90LLJPenof3JI2L9zee050jzh+vbkdJw6g5Hy7kXLuzTqglX4LORphHbddQe634fVuKPdYX/Z+npIYGcecbXaW7pkm5nORa/nwMvyZZwG8BDkAa1AUbn5trFSTezoxI7MUWXR+k+28BLmgUssbQa+Tiz6kO+PLQBlm8f4aSZGTmKb+zxLbEBC+BKGGFD7JQ5SsCdYp9d4B0AA3yJac+TsEr5eFILUc16oZnP0tslfC8qsJ+8GfQQPFlXcIHLLWynrIPiUYSfTeCN2qDp6KtHYDMBr3uWLxAMJ6h6hNdIYFttKF289uoNiDZYxdfDX7cCnhlPcCTwfZ1PCP5nEHgqdBnYFvddtvHBRj1Bj55Go16P7bquWboYNsrT+BICW1LgnfUH0hB0ZnKwmXSEv6FBdYSl/p2zhxZ3weI3EKx5hJIu0DcfpkeESXmipvKN9CcQLPynnb/bQvEwRLrc/owBL2lnlwMtCBbfS5VBLIKF/BEM3aS9C0y6x1ES3Kdtf5a9C5ZfD1xUTlJ/5E4lPzsuJKFWPQFsXkm8abXwQWPfoHeGp4FlRvM1S1o+dXn2jaOU+n8J8Ny9MXsg2jGU1ycuzp6I4t3TO3f104hbjTRTjKA6ero/tTiSTcgUbSzsT6Fe83yqk6tAldOGkUaq/ay1e1vCp5ptXVOWBVX4WDq/3mo7WkfU2RzLT+vnE7hPBXiBZj/ptwdUe6ANtU2VqGkqRW1zBRraauALNBtGRHnjEBeZgsTodKTEDkRybDriopJMeadfXRjoJH6SkE/Gjt4JdWLvtvf3j5bOMQXeAVygC6yi2jzsKH8fu6vfQlnzc+BrM0ynmmTb5RXnf6oau/l68TY5ci6GJSxEVtpcjEybiozE4fBq6R5yoqsdxE80CmL5XpBI9DmhhirsEbCxKhs7qMedI0k4JsBLXwtCB/CdZR/j/f3PYFft7wy4/E4LMZ5sxGuBYmxo6ngDufogNWRQIAN8aAuUYseBu7GN3xrwQ2gMT/gaJg08B+MyFiAtfrittlSb1BjLhVdUvUFg1+NKHG2sE1j5zBhDr5MEbLXYW0mKCm/RW3x7jF8RuRLHhrLaNHsvF/7OJwbekXJBuL9mJ5bvfgjbDjwKgZ0SOdvUavFrC4Hqt1psEe/eFsM4dcANjysRcd5piHBHMO5HVcsyrMhfhrWFQFbqTzBl0LkYnjaNjyPtUXBEDDBM5x5MVCpcGRSKomu4eBpJzPVwWvWHhh5jXZ3ukTHuceTRLrgG3w9XDB9Bqt0hoemaX3T6ZsgnevTngN7O/Y4Vu/6K5QVXQuoiPmIegaatbDY71IC+G9G10faV1xWgiuG7K9THkW59NtOC9oD99H5IwkWYOugKjM44DpGcI+T6zYAQWFYb375fN54PkinBnjEksNeuuEdbQ8xwcZQEOULYFc/carii+fpHGOA1+m1VGCIXCpyszqO/owbeAb2qoQjLNt2MvXV/Q3r0HMoMP9zqALxr5Udy5eGXuAKe3/xT8vnaHUd5hDvO6PtAMMccQTUg7hSOgBuRlXESj+6y31vvFwOMmuI8dHA3AjkT7GZFTCaQ3BGzanltv7ZBiAl0Cn06GbTdCL1nxjYmKS9HgFlAHeqV6pYF19RaQSFpQnLcaKNSpQ67A8/uHLkTV6XPcys24r41w1HW9DdkxCxAwNLTfa7oekjNUdTBImqs5I0yZOKBYAP8wWqCPw7xUTPR7FuJ9/PPwsubF2FHyctoa28wHbc7emge6VG7ABNIyePhmUUpjj2biyIC669gVu3F651/SrTiStO96MXMm3dY0NXatXtvRGt7HcvTqRNh3BECby+ENJRyClfikfWzqAbGUZ/PgC+oRh+dWgnTLraXYPOGCbswgB8NBFsp8eUEeTRNUX4v5d+ADwvOwStbvoidpf+Ej8t587DZMMxerPWowwE/cRS8c/4O94TlfDmYOt9FKQ9U0VMFqTuJ3+K915nnJbj44lQ4SQ9yw0318UgyrM37BUrrlvHbr9geVXZOOKLJ1dZfbqwreANPbzsdGdH8hp8WQcCipJlv+8Nzt3OFRxI3oFPVSOJlcmoeY/eM/aH6AhbfnwxWURUNRWxEMtr8Ofio4Gzklp+A8Znfx6gBC7uqIFZuFnNOI0Lggza5e+hp9Iu4I3wnX9Xn1oBcRDx1uaRfHKDrpl6MWuM9N5nV2n4QH+25BRUNDyOKqIoZfbl+A+/o9E1Fq0KgzzZqRS+FdjSsr5qO8J6RdpYR4MbmZ1yjlpqVXbVHg5SJMUf1DSxHnMc1DDERSWjxv4d1+9/D7vJZGJvxI4wkA2L5ParjHMDMJCjwNbZEnHEDtAHbya3b0ucEP5TXNp/ZCnPNtyVrc7Bh/1VUfRsI+nFo9K1hmRCzOpHpHO0X8A7o0ulPbjkFA6JnEJBGNlcvfPZdQefKjjROKAQJ6xLUkvYQ8BwFupa3GaE8VBHUyVawjAwYiWgyoNW/GRuLlmBXRRxGpv6WDFiE1PjRHYCxAPEWBToBS/DFUtXZ1dn31BqjwpSXrq65CLtLl2FfzQ+pWvjMxDMR7cEDRlh60uhK8bDAO6BX1hfiiZxZXFnyawdK+acNuprZoedZmwTIAVnpTtyAIRaQGcxGpy6JARUcKYPJgBTOCeUE/1vIo+oemPBdDE89EwOTshEXndGFCYaT/LFhFa3Ozk7103SuadyD/dVvoPDADzjZc5veO5lgN5mJXy+t8gPJw7o+gXeslzZ/M/6Sc70RCo8rjoS1yXSE8/Jhm9Izg9rvACxcBYm6L6lUqHt2aqinIalVmj0b+Mm8cjIgiuBMYZqfOvh+Tn73kyG0W2Jv4pbEAqTEZXF/KMPMBx4u3BwXDAZoFjYb/V3fUoKahq2oanwDdS2vGh5HevmxMecHf7DGXActwsmqnS0Qh064sE/g7Q4Ar2x9FIUNL9NOn8+hxLX8v/CgPr3M6pJqYYec0Eg3ry2bG7xhjwiNCuNZRqHhAyEJMsLvxM1c4Xbp09Aovr53EGX1v0Uxt+M1h/CbMjLnJK4VaLMb3R2k5dRA4HO4oVfFUcNuM5/WE17PNGkl3q8j9SbGYygErFP8d0WYvCYeDvFQWq/AOypmW/m7eK/y+xyiPCwouCf0NZ6poQ+yx/AWq3JzAeXmStbt1gKFofF+hvSE1Nl0MyGrdq6Jk4l3DhUXgBqv0QxdXCDxMC2C1sYtjXeM6lAWx7mJUIwZBMmEtpX5tP1hPyoUDQFs0OCPPQLTwXUfK9BP7y4s8I6KaWxuwF/ffhiuwGmo4ZCyrMG9U/rU7kityGSjAUmv0PG6lmVCW8Skmbgsk1B6l1BUTLoaasdNLMQJM2ky3XDFzmIQpRzzStJsw2rgJNomnRfCyvxTSO+mxNe17IV/NLkVOsJH5Lq7sMCbutiG2ppG/OrSeH63PYwDSnZp31zsTryjE6Zk17Kmv6ajKtX1Xnc6gp7bZ/SCmIdBGK8rr0nTPeUIxnvg5yFBgWgPgvQBHo0V1Hep1A/yQSfkW8EBfqUX4NAIhjy5QvXEVpmG2a0z7VLTCKjRagKWCtwjzxnUzTepPdRBHs6w7pBP497dljWTcOFOLqDM1/Vicvce2SZAz9RQRvNBAkHxTPIhpp0c7c+s0Y2azhLQ13ZefhJjTl0ibdHx8wMyfUTGjzS6lQh/qdPVtVCRd/FbJUmorXKcOJnCdIt2XVAfPPCTIYtAW/ySz8RNyMr1KnbIkwDjTAsBboBX9aH+d8gDm+gi6DYDGLL9LmGhd+7lNQEojR/ZxRN4nX2j+agvF17iQyU6ivrZEgO806KeJHVHbVEYQ8mLitLS3kJDrR+7iqgXzR6IM2pkc0fy5L4oJKVFGIbo4+LWJulwG4eOukNVmWt1hrpTf1fAOXvGkv434DFd9wiCK0BA2TMtHk3I6mTmGyZwnuDgIOAUJDLAgO9U6oDVWUQFOJ3UiMDuCA3ovKdOU3hc/PrFYt2MMTfrCJUzhcP89Al8R37SNnTsNnQkm0joXlScGzE8MEIAbtopc1PLbg9GJKXjwguGYfjIVB5/FWuOWWnkZ/UlxQewZmUpj6QqYz7pzyTM4mFxAlFnzuhTfOHS2WnCF2vts2b4QhL7qCxBRez/Zk47pBZ0jxnUSwEUFND0HsYNs3izQ+JFIETEgMcycg6AIeB1bUu7QjI5JPE2w5lmmNf3doHI9g945Qzn2H4j3THcv8lpJHwHmCsJN1w3FcefOAUTJozkJ/jpBDyeI+CQfSxSfn4hXs8jC0t4HsC2LXt44NomnqK3VXcwIiUNg0ZFm1P82poJDvFwnA4XlV6W4Ao0EzBqQv4YbAmyWyOU7dOPZVG9BKl6JLEEXTTEAB0cJPWiSVegywQ14DPocIYIkxXyvwGdcQd0W9o56kSbfYqOlSjoeXLf7qiAt8+uoTrhBPbxZr2XUo8Lz5+Kiy6+CHPmTsGQIVoR9qxaw1RO93QYQ2pakvHZ2WOx5Kun4cc/K+aBOzn44+/ew9qN+cyZhrnTEyj9QTTxvADNF+weAQgN6dBGFOWOks8RwBJiiBkArF6nJRtAWK8+OhNXXFQLOr3dMiqHDOkAPTQJ9mi36iNhga32k05HqLhUGxkp0FP53ezbq6pwx63cIxrL57p04XBQer+BF4yaQyKjXEgYEElgtN9cj+9cexwuvvRUnjszoYtUO98EORUrdOKq2OYBQbAj5gvAsWNHsMEjcMGFp/IIkm145skVePrZHOZOIAOSzdmXTfXUpQTeXuNQcbvtYU3bIgQ+wWAJQmrAFkhueheBtgh8UKomEJJ2phmpp+R3tI3tFM6OM1cdwDNVYBsmKmR5CQEPRUpJdOPddw/ikguH4Hs3n0chYQtUbw9G2pT7Bbzq1ehMSY8wRwBuzy/BN74+F9dcdzYPz5lE4jYxG2zbejncN0F2mU4dNnVIZl3mM0V9TX3SybNx3Q278Jen38KDj3DHjyd1zJ2War7UbmrgHjhT3GZzzAGfgJo0tlf2PDEWcJJyF4eBpN8wgODLmjGTq4Bm3BRU3LRAP0wLCYVR24oLSPkQ8DwcG0GCnpziwcY19Vh4YgLuf2QpP66OJl6a9KV2wjsCr6r6cnz8xhNIde7kRzllmDp2IN76681YePIcnmpBiaNTJeJsXxX1VYNzzykvSZHXsYlSXbPnTMYVV56Bvz7zFg+jeJfZozF7Ko9UId5NdfZxKrbk232xFZENkL2byDjHQAcDaAkZsMUAgS2QxTETV2t0ISewQ1edQQ+BH6TtnszzEFZ8UIsvLUzBU8u+ye+Ak8x5bc75mTYd/jokQwmS+G5JHVlNxEWzT0eH5OwowX2/PR9LLz+TZwHYSzKHqw5gXUse/ZWYKM/+0duSM236eKqz8bh06WIse/Yt/PJuMSACs7O1z05LqIGqhSYdD7/mpYa5Um01YwNK8EVX/ziLykt3GguJ6Uxmbjvs0XLRshtjbhlBozAnDSDo71fgikvH4Nf3LzWnzRpMqGb6dKSlv5NQQ8nVYxbNW2pXh1OjLJ4NExk5Eh+tvY2nnNpHQ9kSbh9Z1ZH5U4gYPIwyt0eVGJw9lec+0l9y6WI8t2wF7rhrNWt2YQYP7Inko5/mBg5/qRba6dL0tvQLaHZPwEsF6Z/pp0JFlGIC50dXnRyZKnKCiHRieaqTzsBc8X4R7v5/J+M7N57HM3Mi+1QvDqyGDCt05ewuXTs5a9A8HsDED/3NdggJyIZ2oaCgBL+661nc9aurkUYLxFYB7I504v+Sc0aZU31u7n689I/V+OGPVzKpFeN4nnvawGi06ZiUZjKA0ueALbTNv1DoXAt4+39v/bIn6iiazfLvfCRLzsXzcZbgS6friK9DgmEuwvwIcFK3Wn0BV25hZZNrw67iZyZlDbmEliH/cBQiJAAM1SZzVqSHZ4DJBtfhN85BOmHo/suTbAYIKHmgqLCcZ9d/iPt+tRqa/PWmwNypiea0EV8bXzqh10JLEi7B0T+VNaEhYac49Bwh0/wmsBWu/biR6+96/OSH8/Ht687E0KHcjKFTXnvkmMuwPyFMAz5qwx35pVtcG3aXXDty6KCHU2NdPMJDfyPELueArytnBISl+L+caKs9ghZqeC1P9NNpeC++sAaP/WkLWyfrJxkzJ8eag38CtO3bfdojImBkhC2JdqdFQkzRUSs6e16hTg/cnKdVeBu+dWU2vnH1qZzsJ5ledx99fUERwtPPk8G8u/aWvODaWlA60R307Bg7jAfdew+d4CEiyszfjk7p6v+qMwskttWZ6DVC8/OLzXpg+Wub8MyyvWy63vnRm8KxfAkqCvHJXh7pKFVkT+TauGviyXx55Xq3hq8bchU9Jj0dV9wwlSdIzcVUnivsjPqjFMb26sZARGFpxXWG1Tm7S94bP3rw8TwJqovUs+Z/O2eriEMMUAd0PGJpSSUP5CzksegF2L61GNs2V2HNBkmyQJaEyRKJwglzEzFlegZBHk4/BuPGj+BpgMm8Z7sjkXKnTEgVUb/7qd+rfNw0HWuA55k1F6SnpT4/KDmindzvuqnilP43DAWSnDMKnC7ojDSdddxI7+O5NY45pzNqdJRiHI84dyRbZcIx06F1BKGvrhWR+wpLn5wxfsjltLJoZHFLbePukvezRgz6QkKUixoQPFP1P8fZwKk/ttqUajmcc8BW3v7k741eSLcHGprbPXtLqpuSk71ZozIyyt3PP2/GGKK9EZfvLSwP8K8xCnS9pWQ43RvBf6d0AadJU5KvuMBwgJWudryTpr7ZZez8R9NXe34UHb6X1tzmqaxv40Ny90UCnfV43Rde6AroT11OGpORx6OqziiuakB9i1/qpo2V29Oraajk5T/DEQwD7CGGhExM3lDa0ThhYzPULk0y2kDyNfKPKxZXNfJvUzVcnD0m85VVnf5Yscnp/J3R7fmVJ/CPv1Yd4B+B1R+DpdMf0ZXXiXFdT4BjwueuAwGdNCfAfPx7foEWxiobAlLhO7fnl80VyKsIugGbP13YK/Bnz57dvvfAgaS6qpZfcHheMXhgRmwcv4nhTMxHW9yS1YR1lFLhVPofF1LU3V4qCaLJc0ZRzT/XVFffuJNS+rtZ44c8rP462Dp97wK8Elet4h/2Xsgny3T79lVmHvC1nUW74BSqyAncu8kidb5Cy20PZfjcdSBAcS/iHtEuWkgf85nwm7PGD3/Puen8sWLnWuH/BzkLA0SXNiuRAAAAAElFTkSuQmCC;" parent="1" vertex="1">
          <mxGeometry x="1547" y="280" width="50.28" height="46" as="geometry" />
        </mxCell>
        <mxCell id="SeBkJRlhaxik6qpEVH74-114" value="Micrososft Azure" style="text;strokeColor=none;fillColor=none;html=1;align=center;verticalAlign=middle;whiteSpace=wrap;rounded=0;fontSize=18;fontColor=#002a86;fontStyle=0;fontFamily=Tahoma;" parent="1" vertex="1">
          <mxGeometry x="1845.5" y="327" width="179" height="30" as="geometry" />
        </mxCell>
        <mxCell id="SeBkJRlhaxik6qpEVH74-115" value="" style="shape=image;verticalLabelPosition=bottom;labelBackgroundColor=default;verticalAlign=top;aspect=fixed;imageAspect=0;image=data:image/svg+xml,PHN2ZyB4bWxucz0iaHR0cDovL3d3dy53My5vcmcvMjAwMC9zdmciIHZpZXdCb3g9IjAgMCA5NiA5NiIgaGVpZ2h0PSIxNTAiIHdpZHRoPSIxNTAiPiYjeGE7ICAgIDxkZWZzPiYjeGE7ICAgICAgICA8bGluZWFyR3JhZGllbnQgZ3JhZGllbnRVbml0cz0idXNlclNwYWNlT25Vc2UiIGdyYWRpZW50VHJhbnNmb3JtPSJtYXRyaXgoMSAwIDAgLTEgMTA3NSAxNTgpIiB5Mj0iNjUuNDI2IiB5MT0iMTQ1LjMxMiIgeDI9Ii0xMDU5LjIxMyIgeDE9Ii0xMDMyLjE3MiIgaWQ9ImUzOTljMTlmLWI2OGYtNDI5ZC1iMTc2LTE4YzIxMTdmZjczYyI+JiN4YTsgICAgICAgICAgICA8c3RvcCBzdG9wLWNvbG9yPSIjMTE0YThiIiBvZmZzZXQ9IjAiLz4mI3hhOyAgICAgICAgICAgIDxzdG9wIHN0b3AtY29sb3I9IiMwNjY5YmMiIG9mZnNldD0iMSIvPiYjeGE7ICAgICAgICA8L2xpbmVhckdyYWRpZW50PiYjeGE7ICAgICAgICA8bGluZWFyR3JhZGllbnQgZ3JhZGllbnRVbml0cz0idXNlclNwYWNlT25Vc2UiIGdyYWRpZW50VHJhbnNmb3JtPSJtYXRyaXgoMSAwIDAgLTEgMTA3NSAxNTgpIiB5Mj0iMTA1Ljk2OCIgeTE9IjEwOC4wODMiIHgyPSItMTAyOS45OCIgeDE9Ii0xMDIzLjcyNSIgaWQ9ImFjMmE2ZmMyLWNhNDgtNDMyNy05YTNjLWQ0ZGNjMzI1NmUxNSI+JiN4YTsgICAgICAgICAgICA8c3RvcCBzdG9wLW9wYWNpdHk9Ii4zIiBvZmZzZXQ9IjAiLz4mI3hhOyAgICAgICAgICAgIDxzdG9wIHN0b3Atb3BhY2l0eT0iLjIiIG9mZnNldD0iLjA3MSIvPiYjeGE7ICAgICAgICAgICAgPHN0b3Agc3RvcC1vcGFjaXR5PSIuMSIgb2Zmc2V0PSIuMzIxIi8+JiN4YTsgICAgICAgICAgICA8c3RvcCBzdG9wLW9wYWNpdHk9Ii4wNSIgb2Zmc2V0PSIuNjIzIi8+JiN4YTsgICAgICAgICAgICA8c3RvcCBzdG9wLW9wYWNpdHk9IjAiIG9mZnNldD0iMSIvPiYjeGE7ICAgICAgICA8L2xpbmVhckdyYWRpZW50PiYjeGE7ICAgICAgICA8bGluZWFyR3JhZGllbnQgZ3JhZGllbnRVbml0cz0idXNlclNwYWNlT25Vc2UiIGdyYWRpZW50VHJhbnNmb3JtPSJtYXRyaXgoMSAwIDAgLTEgMTA3NSAxNTgpIiB5Mj0iNjguNTYxIiB5MT0iMTQ3LjY0MiIgeDI9Ii05OTcuNDgyIiB4MT0iLTEwMjcuMTY1IiBpZD0iYTdmZWU5NzAtYTc4NC00YmIxLWFmOGQtNjNkMThlNWY3ZGI5Ij4mI3hhOyAgICAgICAgICAgIDxzdG9wIHN0b3AtY29sb3I9IiMzY2NiZjQiIG9mZnNldD0iMCIvPiYjeGE7ICAgICAgICAgICAgPHN0b3Agc3RvcC1jb2xvcj0iIzI4OTJkZiIgb2Zmc2V0PSIxIi8+JiN4YTsgICAgICAgIDwvbGluZWFyR3JhZGllbnQ+JiN4YTsgICAgPC9kZWZzPiYjeGE7ICAgIDxwYXRoIGQ9Ik0zMy4zMzggNi41NDRoMjYuMDM4bC0yNy4wMyA4MC4wODdhNC4xNTIgNC4xNTIgMCAwIDEtMy45MzMgMi44MjRIOC4xNDlhNC4xNDUgNC4xNDUgMCAwIDEtMy45MjgtNS40N0wyOS40MDQgOS4zNjhhNC4xNTIgNC4xNTIgMCAwIDEgMy45MzQtMi44MjV6IiBmaWxsPSJ1cmwoI2UzOTljMTlmLWI2OGYtNDI5ZC1iMTc2LTE4YzIxMTdmZjczYykiLz4mI3hhOyAgICA8cGF0aCBkPSJNNzEuMTc1IDYwLjI2MWgtNDEuMjlhMS45MTEgMS45MTEgMCAwIDAtMS4zMDUgMy4zMDlsMjYuNTMyIDI0Ljc2NGE0LjE3MSA0LjE3MSAwIDAgMCAyLjg0NiAxLjEyMWgyMy4zOHoiIGZpbGw9IiMwMDc4ZDQiLz4mI3hhOyAgICA8cGF0aCBkPSJNMzMuMzM4IDYuNTQ0YTQuMTE4IDQuMTE4IDAgMCAwLTMuOTQzIDIuODc5TDQuMjUyIDgzLjkxN2E0LjE0IDQuMTQgMCAwIDAgMy45MDggNS41MzhoMjAuNzg3YTQuNDQzIDQuNDQzIDAgMCAwIDMuNDEtMi45bDUuMDE0LTE0Ljc3NyAxNy45MSAxNi43MDVhNC4yMzcgNC4yMzcgMCAwIDAgMi42NjYuOTcySDgxLjI0TDcxLjAyNCA2MC4yNjFsLTI5Ljc4MS4wMDdMNTkuNDcgNi41NDR6IiBmaWxsPSJ1cmwoI2FjMmE2ZmMyLWNhNDgtNDMyNy05YTNjLWQ0ZGNjMzI1NmUxNSkiLz4mI3hhOyAgICA8cGF0aCBkPSJNNjYuNTk1IDkuMzY0YTQuMTQ1IDQuMTQ1IDAgMCAwLTMuOTI4LTIuODJIMzMuNjQ4YTQuMTQ2IDQuMTQ2IDAgMCAxIDMuOTI4IDIuODJsMjUuMTg0IDc0LjYyYTQuMTQ2IDQuMTQ2IDAgMCAxLTMuOTI4IDUuNDcyaDI5LjAyYTQuMTQ2IDQuMTQ2IDAgMCAwIDMuOTI3LTUuNDcyeiIgZmlsbD0idXJsKCNhN2ZlZTk3MC1hNzg0LTRiYjEtYWY4ZC02M2QxOGU1ZjdkYjkpIi8+JiN4YTs8L3N2Zz4=;" parent="1" vertex="1">
          <mxGeometry x="1830" y="320" width="34" height="34" as="geometry" />
        </mxCell>
        <mxCell id="GFtdvAifXNPZdg2QPHuQ-41" value="" style="group" vertex="1" connectable="0" parent="1">
          <mxGeometry x="240" y="530" width="235" height="410" as="geometry" />
        </mxCell>
        <mxCell id="SeBkJRlhaxik6qpEVH74-40" value="" style="rounded=1;whiteSpace=wrap;html=1;strokeColor=#0070F2;fillColor=#EBF8FF;arcSize=24;absoluteArcSize=1;imageWidth=64;imageHeight=64;strokeWidth=1.5;" parent="GFtdvAifXNPZdg2QPHuQ-41" vertex="1">
          <mxGeometry width="235" height="410" as="geometry" />
        </mxCell>
        <mxCell id="SeBkJRlhaxik6qpEVH74-42" value="&lt;b&gt;11 - Applications - PRD&lt;/b&gt;&lt;div&gt;&lt;div&gt;&lt;font style=&quot;font-size: 10px;&quot;&gt;a0fd2887-2d3d-46e9-88af-3a5428c18561&lt;/font&gt;&lt;/div&gt;&lt;/div&gt;" style="rounded=1;whiteSpace=wrap;html=1;strokeColor=#0070F2;strokeWidth=1.5;arcSize=16;fillColor=#ffffff;perimeterSpacing=0;absoluteArcSize=1;" parent="GFtdvAifXNPZdg2QPHuQ-41" vertex="1">
          <mxGeometry x="16.75" y="80" width="201.5" height="60" as="geometry" />
        </mxCell>
        <mxCell id="SeBkJRlhaxik6qpEVH74-43" value="&lt;b&gt;1 - Applications&lt;/b&gt;&lt;div&gt;&lt;font style=&quot;font-size: 13px;&quot;&gt;Subdomain: frosta-apps&lt;/font&gt;&lt;/div&gt;" style="text;strokeColor=none;fillColor=none;html=1;align=center;verticalAlign=middle;whiteSpace=wrap;rounded=0;fontSize=16;" parent="GFtdvAifXNPZdg2QPHuQ-41" vertex="1">
          <mxGeometry x="25.5" y="20" width="176" height="30" as="geometry" />
        </mxCell>
        <mxCell id="GFtdvAifXNPZdg2QPHuQ-1" value="&lt;b&gt;12 - Applications - TEST&lt;/b&gt;&lt;div&gt;&lt;div&gt;&lt;font style=&quot;font-size: 10px;&quot;&gt;f0d6dc20-f13f-4cb2-bf1f-c77f81a5aeb3&lt;/font&gt;&lt;/div&gt;&lt;/div&gt;" style="rounded=1;whiteSpace=wrap;html=1;strokeColor=#0070F2;strokeWidth=1.5;arcSize=16;fillColor=#ffffff;perimeterSpacing=0;absoluteArcSize=1;" vertex="1" parent="GFtdvAifXNPZdg2QPHuQ-41">
          <mxGeometry x="16.75" y="160" width="201.5" height="60" as="geometry" />
        </mxCell>
        <mxCell id="GFtdvAifXNPZdg2QPHuQ-2" value="&lt;b&gt;13 - Applications - DEV&lt;/b&gt;&lt;div&gt;&lt;div&gt;&lt;font style=&quot;font-size: 10px;&quot;&gt;26d04001-204d-48ef-af9d-ae77a9bc95d7&lt;/font&gt;&lt;/div&gt;&lt;/div&gt;" style="rounded=1;whiteSpace=wrap;html=1;strokeColor=#0070F2;strokeWidth=1.5;arcSize=16;fillColor=#ffffff;perimeterSpacing=0;absoluteArcSize=1;" vertex="1" parent="GFtdvAifXNPZdg2QPHuQ-41">
          <mxGeometry x="16.75" y="240" width="201.5" height="60" as="geometry" />
        </mxCell>
        <mxCell id="GFtdvAifXNPZdg2QPHuQ-3" value="&lt;b&gt;14 - Applications - SBX&lt;/b&gt;&lt;div&gt;&lt;div&gt;&lt;font style=&quot;font-size: 10px;&quot;&gt;f97a7a29-ba0a-4e8d-b390-811a911b56af&lt;/font&gt;&lt;/div&gt;&lt;/div&gt;" style="rounded=1;whiteSpace=wrap;html=1;strokeColor=#0070F2;strokeWidth=1.5;arcSize=16;fillColor=#ffffff;perimeterSpacing=0;absoluteArcSize=1;" vertex="1" parent="GFtdvAifXNPZdg2QPHuQ-41">
          <mxGeometry x="16.75" y="320" width="201.5" height="60" as="geometry" />
        </mxCell>
        <mxCell id="SeBkJRlhaxik6qpEVH74-5" value="" style="shape=image;verticalLabelPosition=bottom;labelBackgroundColor=default;verticalAlign=top;aspect=fixed;imageAspect=0;image=data:image/svg+xml,PHN2ZyB4bWxuczp4bGluaz0iaHR0cDovL3d3dy53My5vcmcvMTk5OS94bGluayIgeG1sbnM9Imh0dHA6Ly93d3cudzMub3JnLzIwMDAvc3ZnIiB2aWV3Qm94PSIwIDAgMTQ0Ljc0NyAzOS44MzIiIGlkPSJhIj48ZGVmcz48bGluZWFyR3JhZGllbnQgZ3JhZGllbnRVbml0cz0idXNlclNwYWNlT25Vc2UiIHkyPSIzOS44MzIiIHgyPSI0MC4yNTgiIHkxPSIwIiB4MT0iNDAuMjU4IiBpZD0iYiI+PHN0b3Agc3RvcC1jb2xvcj0iIzAwYjhmMSIgb2Zmc2V0PSIwIi8+PHN0b3Agc3RvcC1jb2xvcj0iIzAwYjVlZiIgb2Zmc2V0PSIuMDE2Ii8+PHN0b3Agc3RvcC1jb2xvcj0iIzBkOTBkOCIgb2Zmc2V0PSIuMzA4Ii8+PHN0b3Agc3RvcC1jb2xvcj0iIzE2NzVjOCIgb2Zmc2V0PSIuNTc4Ii8+PHN0b3Agc3RvcC1jb2xvcj0iIzFjNjRiZSIgb2Zmc2V0PSIuODE3Ii8+PHN0b3Agc3RvcC1jb2xvcj0iIzFlNWZiYiIgb2Zmc2V0PSIxIi8+PC9saW5lYXJHcmFkaWVudD48L2RlZnM+PHBvbHlsaW5lIGZpbGwtcnVsZT0iZXZlbm9kZCIgZmlsbD0idXJsKCNiKSIgcG9pbnRzPSIwIDM5LjgzMiA0MC42OTIgMzkuODMyIDgwLjUxNyAwIDAgMCAwIDM5LjgzMiIvPjxwYXRoIGZpbGwtcnVsZT0iZXZlbm9kZCIgZmlsbD0iI2ZmZiIgZD0ibTQ3Ljc4Miw3LjQ4OWwtNy45MjUtLjAwNXYxOC44NDVsLTYuOTI0LTE4Ljg0NWgtNi44NjVsLTUuOTEyLDE1Ljc1OWMtLjYzLTMuOTczLTQuNzQtNS4zNDUtNy45NzQtNi4zNzQtMi4xMzUtLjY4Ni00LjQwMS0xLjY5NC00LjM4LTIuODA5LjAxNy0uOTE1LDEuMjE1LTEuNzY1LDMuNTg5LTEuNjM3LDEuNTk1LjA4NCwzLjAwMS4yMTMsNS44LDEuNTYzbDIuNzUzLTQuNzk1Yy0yLjU1NS0xLjMtNi4wODYtMi4xMjEtOC45NzgtMi4xMjRoLS4wMTdjLTMuMzc0LDAtNi4xODUsMS4wOTMtNy45MjgsMi44OTQtMS4yMTQsMS4yNTgtMS44NjksMi44NTYtMS44OTYsNC42MjMtLjA0NCwyLjQzMi44NDgsNC4xNTcsMi43MjEsNS41MzMsMS41ODMsMS4xNiwzLjYwNiwxLjkxMiw1LjM5LDIuNDY1LDIuMjAxLjY4MSwzLjk5NiwxLjI3NCwzLjk3NSwyLjUzOS0uMDE2LjQ1OS0uMTkxLjg4OC0uNTIxLDEuMjM2LS41NDguNTY2LTEuMzkxLjc3OS0yLjU1NS43OTktMi4yNDQuMDQ4LTMuOTEtLjMwMy02LjU2Mi0xLjg3bC0yLjQ0OCw0Ljg2MWMyLjY0NCwxLjUwNiw1Ljc3NiwyLjM4OCw4Ljk3MiwyLjM4OGwuNDExLS4wMDZjMi43ODItLjA1LDUuMDI2LS44NDIsNi44Mi0yLjI4Ni4xMDMtLjA4MS4xOTYtLjE2Ni4yOTEtLjI1bC0uNzk1LDIuMTIzaDcuMmwxLjIwOC0zLjY3NGMxLjI2NS40MzMsMi43MDQuNjcxLDQuMjMyLjY3MSwxLjQ4NywwLDIuODg5LS4yMjksNC4xMzEtLjYzNWwxLjE2NCwzLjYzN2gxMS43NDJ2LTcuNjA3aDIuNTYxYzYuMTg4LDAsOS44NTEtMy4xNTQsOS44NTEtOC40MzYsMC01Ljg4NS0zLjU1Ny04LjU4NS0xMS4xMzItOC41ODVabS0xOC4zMTcsMTYuMTI0Yy0uOTI1LDAtMS43OTItLjE2LTIuNTM5LS40NDNsMi41MTItNy45MjZoLjA0OGwyLjQ2OCw3Ljk0OGMtLjc0Mi4yNjMtMS41ODkuNDIxLTIuNDg4LjQyMVptMTguNzgzLTQuNTUzaC0xLjc0NnYtNi4zODZoMS43NDZjMi4zMjgsMCw0LjE4NS43NzMsNC4xODUsMy4xNTEsMCwyLjQ2MS0xLjg1NywzLjIzNi00LjE4NSwzLjIzNiIvPjxwYXRoIGZpbGw9IiMwMDJhODYiIGQ9Im04MC4yMTcsNy40MDFoMTAuMDYzYzUuNTk1LDAsOC42NzQsMS45MTcsOC42NzQsNi4xNTgsMCwyLjkwMy0xLjUxMyw1LjAxNC00LjMxMSw1LjcsMy4yOS40NTgsNS4yNzgsMi41ODYsNS4yNzgsNS44OTQsMCw1LjAxNC00LjA2NCw3LjAzNy05LjE4NCw3LjAzN2gtMTAuNTIxVjcuNDAxWm0xMy45NjksNi44MjZjMC0yLjE2NC0xLjQ5Ni0yLjk3My00LjI0LTIuOTczaC01LjA0OXY2LjI5OGg0Ljg5MWMzLjIwMiwwLDQuMzk4LTEuMTYxLDQuMzk4LTMuMzI1Wm0xLjAyMSwxMC41MjFjMC0yLjM1Ny0xLjc3Ny0zLjQ2Ni00LjgzOS0zLjQ2NmgtNS40NzF2Ny4wNTVoNS41MDZjMi44MTUsMCw0LjgwNC0uNzc0LDQuODA0LTMuNTg5WiIvPjxwYXRoIGZpbGw9IiMwMDJhODYiIGQ9Im0xMDkuMDUxLDExLjVoLTcuNTgzdi00LjA5OWgxOS44NDZ2NC4wOTloLTcuNTY1djIwLjY5aC00LjY5N1YxMS41WiIvPjxwYXRoIGZpbGw9IiMwMDJhODYiIGQ9Im0xMjUuMTQ4LDcuNDAxaDEwLjUwNGM2LjE5MiwwLDkuMDk2LDMuMTg1LDkuMDk2LDcuODk5LDAsNC4zOTgtMi44MzMsOC4xNDYtOC44NSw4LjE0NmgtNi4wN3Y4Ljc0NGgtNC42OFY3LjQwMVptMTQuOTAyLDcuOTUyYzAtMi41NTEtMS42ODktMy45MjMtNC45NDQtMy45MjNoLTUuMjc4djguMDRoNS40MTljMy4yNzIsMCw0LjgwNC0xLjU4Myw0LjgwNC00LjExN1oiLz48L3N2Zz4=;strokeWidth=1.5;" parent="1" vertex="1">
          <mxGeometry x="230.00175365344467" y="409.9964116671034" width="69.1996921234927" height="19.08779611733516" as="geometry" />
        </mxCell>
        <mxCell id="GFtdvAifXNPZdg2QPHuQ-51" value="" style="rounded=1;whiteSpace=wrap;html=1;strokeColor=#0070F2;fillColor=#EBF8FF;arcSize=24;absoluteArcSize=1;imageWidth=64;imageHeight=64;strokeWidth=1.5;" vertex="1" parent="1">
          <mxGeometry x="2750" y="1650" width="235" height="240" as="geometry" />
        </mxCell>
        <mxCell id="GFtdvAifXNPZdg2QPHuQ-52" value="&lt;div&gt;&lt;b&gt;Identity Authentication &amp;amp; Provisioning - TEST&lt;/b&gt;&lt;/div&gt;&lt;div&gt;&lt;span style=&quot;font-size: 10px;&quot;&gt;alkufwktf&lt;/span&gt;&lt;/div&gt;" style="rounded=1;whiteSpace=wrap;html=1;strokeColor=#0070F2;strokeWidth=1.5;arcSize=16;fillColor=#ffffff;perimeterSpacing=0;absoluteArcSize=1;" vertex="1" parent="1">
          <mxGeometry x="2769.62" y="1800" width="195.75" height="60" as="geometry" />
        </mxCell>
        <mxCell id="GFtdvAifXNPZdg2QPHuQ-53" value="&lt;div&gt;&lt;div&gt;&lt;div&gt;&lt;font style=&quot;&quot;&gt;&lt;b&gt;Identity Authentication &amp;amp; Provisioning - PRD&lt;/b&gt;&lt;/font&gt;&lt;/div&gt;&lt;div&gt;&lt;font style=&quot;font-size: 10px;&quot;&gt;aigpjsryp&lt;/font&gt;&lt;/div&gt;&lt;/div&gt;&lt;/div&gt;" style="rounded=1;whiteSpace=wrap;html=1;strokeColor=#0070F2;strokeWidth=1.5;arcSize=16;fillColor=#ffffff;perimeterSpacing=0;absoluteArcSize=1;" vertex="1" parent="1">
          <mxGeometry x="2769.62" y="1720" width="195.75" height="60" as="geometry" />
        </mxCell>
        <mxCell id="GFtdvAifXNPZdg2QPHuQ-54" value="&lt;div&gt;&lt;font style=&quot;background-color: transparent; color: light-dark(rgb(0, 0, 0), rgb(255, 255, 255));&quot;&gt;&lt;b&gt;Cloud Identity Services&lt;/b&gt;&lt;/font&gt;&lt;/div&gt;" style="text;strokeColor=none;fillColor=none;html=1;align=center;verticalAlign=middle;whiteSpace=wrap;rounded=0;fontSize=16;" vertex="1" parent="1">
          <mxGeometry x="2776" y="1670" width="183" height="30" as="geometry" />
        </mxCell>
        <mxCell id="GFtdvAifXNPZdg2QPHuQ-62" value="" style="group" vertex="1" connectable="0" parent="1">
          <mxGeometry x="680" y="1650" width="235" height="303" as="geometry" />
        </mxCell>
        <mxCell id="GFtdvAifXNPZdg2QPHuQ-55" value="" style="rounded=1;whiteSpace=wrap;html=1;strokeColor=#0070F2;fillColor=#EBF8FF;arcSize=24;absoluteArcSize=1;imageWidth=64;imageHeight=64;strokeWidth=1.5;" vertex="1" parent="GFtdvAifXNPZdg2QPHuQ-62">
          <mxGeometry width="235" height="303" as="geometry" />
        </mxCell>
        <mxCell id="GFtdvAifXNPZdg2QPHuQ-57" value="&lt;div&gt;&lt;span style=&quot;background-color: transparent; color: light-dark(rgb(0, 0, 0), rgb(255, 255, 255));&quot;&gt;&lt;b&gt;SuccessFactors - PRD&lt;/b&gt;&lt;/span&gt;&lt;/div&gt;&lt;div&gt;&lt;span style=&quot;font-size: 10px; background-color: transparent; color: light-dark(rgb(0, 0, 0), rgb(255, 255, 255));&quot;&gt;frostaag&lt;/span&gt;&lt;/div&gt;" style="rounded=1;whiteSpace=wrap;html=1;strokeColor=#0070F2;strokeWidth=1.5;arcSize=16;fillColor=#ffffff;perimeterSpacing=0;absoluteArcSize=1;" vertex="1" parent="GFtdvAifXNPZdg2QPHuQ-62">
          <mxGeometry x="19.61999999999989" y="70" width="195.75" height="60" as="geometry" />
        </mxCell>
        <mxCell id="GFtdvAifXNPZdg2QPHuQ-59" value="SuccessFactors" style="image;image=img/lib/sap/SAP_Logo.svg;editableCssRules=.*;verticalLabelPosition=middle;labelBackgroundColor=none;verticalAlign=middle;imageAspect=0;labelPosition=right;align=left;fontSize=16;fontStyle=1;spacingLeft=0;fontColor=#002A86;spacing=0;" vertex="1" parent="GFtdvAifXNPZdg2QPHuQ-62">
          <mxGeometry x="19.630000000000003" y="17" width="50" height="25" as="geometry" />
        </mxCell>
        <mxCell id="GFtdvAifXNPZdg2QPHuQ-60" value="&lt;div&gt;&lt;span style=&quot;background-color: transparent; color: light-dark(rgb(0, 0, 0), rgb(255, 255, 255));&quot;&gt;&lt;b&gt;SuccessFactors - DEV&lt;/b&gt;&lt;/span&gt;&lt;/div&gt;&lt;div&gt;&lt;span style=&quot;font-size: 10px; background-color: transparent; color: light-dark(rgb(0, 0, 0), rgb(255, 255, 255));&quot;&gt;frostaagD - not in use&lt;/span&gt;&lt;/div&gt;" style="rounded=1;whiteSpace=wrap;html=1;strokeColor=#0070F2;strokeWidth=1.5;arcSize=16;fillColor=light-dark(#e7e7e7, #121212);perimeterSpacing=0;absoluteArcSize=1;" vertex="1" parent="GFtdvAifXNPZdg2QPHuQ-62">
          <mxGeometry x="19.629999999999995" y="213" width="195.75" height="60" as="geometry" />
        </mxCell>
        <mxCell id="GFtdvAifXNPZdg2QPHuQ-61" value="&lt;div&gt;&lt;span style=&quot;background-color: transparent; color: light-dark(rgb(0, 0, 0), rgb(255, 255, 255));&quot;&gt;&lt;b&gt;SuccessFactors - TEST&lt;/b&gt;&lt;/span&gt;&lt;/div&gt;&lt;div&gt;&lt;span style=&quot;font-size: 10px; background-color: transparent; color: light-dark(rgb(0, 0, 0), rgb(255, 255, 255));&quot;&gt;frostaagT1&lt;/span&gt;&lt;/div&gt;" style="rounded=1;whiteSpace=wrap;html=1;strokeColor=#0070F2;strokeWidth=1.5;arcSize=16;fillColor=#ffffff;perimeterSpacing=0;absoluteArcSize=1;" vertex="1" parent="GFtdvAifXNPZdg2QPHuQ-62">
          <mxGeometry x="19.620000000000005" y="143" width="195.75" height="60" as="geometry" />
        </mxCell>
        <mxCell id="GFtdvAifXNPZdg2QPHuQ-83" value="" style="group" vertex="1" connectable="0" parent="1">
          <mxGeometry x="1565.5" y="1650" width="235" height="240" as="geometry" />
        </mxCell>
        <mxCell id="GFtdvAifXNPZdg2QPHuQ-75" value="" style="rounded=1;whiteSpace=wrap;html=1;strokeColor=#0070F2;fillColor=#EBF8FF;arcSize=24;absoluteArcSize=1;imageWidth=64;imageHeight=64;strokeWidth=1.5;container=0;" vertex="1" parent="GFtdvAifXNPZdg2QPHuQ-83">
          <mxGeometry width="235" height="240" as="geometry" />
        </mxCell>
        <mxCell id="GFtdvAifXNPZdg2QPHuQ-76" value="&lt;div&gt;&lt;span style=&quot;background-color: transparent; color: light-dark(rgb(0, 0, 0), rgb(255, 255, 255));&quot;&gt;&lt;b&gt;SAP Analytics Cloud - PRD&lt;/b&gt;&lt;/span&gt;&lt;/div&gt;&lt;div&gt;&lt;span style=&quot;font-size: 10px;&quot;&gt;frosta-1&lt;/span&gt;&lt;/div&gt;" style="rounded=1;whiteSpace=wrap;html=1;strokeColor=#0070F2;strokeWidth=1.5;arcSize=16;fillColor=#ffffff;perimeterSpacing=0;absoluteArcSize=1;container=0;" vertex="1" parent="GFtdvAifXNPZdg2QPHuQ-83">
          <mxGeometry x="19.61999999999989" y="70" width="195.75" height="60" as="geometry" />
        </mxCell>
        <mxCell id="GFtdvAifXNPZdg2QPHuQ-82" value="&lt;div&gt;&lt;span style=&quot;background-color: transparent; color: light-dark(rgb(0, 0, 0), rgb(255, 255, 255));&quot;&gt;&lt;b&gt;SAP Analytics Cloud - TEST&lt;/b&gt;&lt;/span&gt;&lt;/div&gt;&lt;div&gt;&lt;span style=&quot;font-size: 10px;&quot;&gt;frosta-q&lt;/span&gt;&lt;/div&gt;" style="rounded=1;whiteSpace=wrap;html=1;strokeColor=#0070F2;strokeWidth=1.5;arcSize=16;fillColor=#ffffff;perimeterSpacing=0;absoluteArcSize=1;container=0;" vertex="1" parent="GFtdvAifXNPZdg2QPHuQ-83">
          <mxGeometry x="19.61999999999989" y="150" width="195.75" height="60" as="geometry" />
        </mxCell>
        <mxCell id="GFtdvAifXNPZdg2QPHuQ-80" value="" style="image;image=img/lib/sap/SAP_Logo.svg;editableCssRules=.*;verticalLabelPosition=middle;labelBackgroundColor=none;verticalAlign=middle;imageAspect=0;labelPosition=right;align=left;fontSize=16;fontStyle=1;spacingLeft=0;fontColor=#002A86;spacing=0;container=0;" vertex="1" parent="GFtdvAifXNPZdg2QPHuQ-83">
          <mxGeometry x="19.61999999999989" y="10" width="57" height="29" as="geometry" />
        </mxCell>
        <mxCell id="GFtdvAifXNPZdg2QPHuQ-73" value="&lt;font face=&quot;arial&quot;&gt;&lt;span style=&quot;font-size: 16px;&quot;&gt;&lt;b&gt;Analytics Cloud&lt;/b&gt;&lt;/span&gt;&lt;/font&gt;" style="text;html=1;align=center;verticalAlign=middle;resizable=0;points=[[0,0.5,0,0,0],[0.5,0,0,0,0],[0.5,1,0,0,0],[1,0.5,0,0,0]];autosize=1;strokeColor=none;fillColor=none;fontSize=12;fontColor=light-dark(#082a86, #bccad8);fontFamily=Helvetica;container=0;" vertex="1" parent="GFtdvAifXNPZdg2QPHuQ-83">
          <mxGeometry x="63.11999999999989" y="10" width="140" height="30" as="geometry" />
        </mxCell>
        <mxCell id="GFtdvAifXNPZdg2QPHuQ-104" value="" style="group" vertex="1" connectable="0" parent="1">
          <mxGeometry x="1870" y="1650" width="235" height="220" as="geometry" />
        </mxCell>
        <mxCell id="GFtdvAifXNPZdg2QPHuQ-64" value="" style="rounded=1;whiteSpace=wrap;html=1;strokeColor=#0070F2;fillColor=#EBF8FF;arcSize=24;absoluteArcSize=1;imageWidth=64;imageHeight=64;strokeWidth=1.5;container=0;" vertex="1" parent="GFtdvAifXNPZdg2QPHuQ-104">
          <mxGeometry width="235" height="220" as="geometry" />
        </mxCell>
        <mxCell id="GFtdvAifXNPZdg2QPHuQ-65" value="&lt;div&gt;&lt;span style=&quot;background-color: transparent; color: light-dark(rgb(0, 0, 0), rgb(255, 255, 255));&quot;&gt;&lt;b&gt;SAP Ariba Sourcing - PRD&lt;/b&gt;&lt;/span&gt;&lt;/div&gt;&lt;div&gt;&lt;span style=&quot;background-color: transparent; color: light-dark(rgb(0, 0, 0), rgb(255, 255, 255)); font-size: 10px;&quot;&gt;frosta-ag&lt;/span&gt;&lt;/div&gt;" style="rounded=1;whiteSpace=wrap;html=1;strokeColor=#0070F2;strokeWidth=1.5;arcSize=16;fillColor=#ffffff;perimeterSpacing=0;absoluteArcSize=1;container=0;" vertex="1" parent="GFtdvAifXNPZdg2QPHuQ-104">
          <mxGeometry x="19.61999999999989" y="70" width="195.75" height="60" as="geometry" />
        </mxCell>
        <mxCell id="GFtdvAifXNPZdg2QPHuQ-68" value="&lt;div&gt;&lt;b style=&quot;background-color: transparent; color: light-dark(rgb(0, 0, 0), rgb(255, 255, 255));&quot;&gt;SAP Ariba Sourcing&lt;/b&gt;&lt;span style=&quot;background-color: transparent; color: light-dark(rgb(0, 0, 0), rgb(255, 255, 255));&quot;&gt;&lt;b&gt;&amp;nbsp;- TEST&lt;/b&gt;&lt;/span&gt;&lt;/div&gt;&lt;div&gt;&lt;span style=&quot;font-size: 10px; background-color: transparent; color: light-dark(rgb(0, 0, 0), rgb(255, 255, 255));&quot;&gt;frosta-ag-T&lt;/span&gt;&lt;/div&gt;" style="rounded=1;whiteSpace=wrap;html=1;strokeColor=#0070F2;strokeWidth=1.5;arcSize=16;fillColor=#ffffff;perimeterSpacing=0;absoluteArcSize=1;container=0;" vertex="1" parent="GFtdvAifXNPZdg2QPHuQ-104">
          <mxGeometry x="19.620000000000005" y="143" width="195.75" height="60" as="geometry" />
        </mxCell>
        <mxCell id="GFtdvAifXNPZdg2QPHuQ-69" value="Ariba" style="image;image=img/lib/sap/SAP_Logo.svg;editableCssRules=.*;verticalLabelPosition=middle;labelBackgroundColor=none;verticalAlign=middle;imageAspect=0;labelPosition=right;align=left;fontSize=16;fontStyle=1;spacingLeft=0;fontColor=#002A86;spacing=0;" vertex="1" parent="GFtdvAifXNPZdg2QPHuQ-104">
          <mxGeometry x="19.620000000000005" y="17" width="39.92" height="20.5" as="geometry" />
        </mxCell>
        <mxCell id="GFtdvAifXNPZdg2QPHuQ-105" value="" style="group" vertex="1" connectable="0" parent="1">
          <mxGeometry x="2180" y="1650" width="235" height="233" as="geometry" />
        </mxCell>
        <mxCell id="GFtdvAifXNPZdg2QPHuQ-96" value="" style="rounded=1;whiteSpace=wrap;html=1;strokeColor=#0070F2;fillColor=#EBF8FF;arcSize=24;absoluteArcSize=1;imageWidth=64;imageHeight=64;strokeWidth=1.5;container=0;" vertex="1" parent="GFtdvAifXNPZdg2QPHuQ-105">
          <mxGeometry width="235" height="233" as="geometry" />
        </mxCell>
        <mxCell id="GFtdvAifXNPZdg2QPHuQ-95" value="Business Network" style="image;image=img/lib/sap/SAP_Logo.svg;editableCssRules=.*;verticalLabelPosition=middle;labelBackgroundColor=none;verticalAlign=middle;imageAspect=0;labelPosition=right;align=left;fontSize=16;fontStyle=1;spacingLeft=0;fontColor=#002A86;spacing=0;" vertex="1" parent="GFtdvAifXNPZdg2QPHuQ-105">
          <mxGeometry x="19.61999999999989" y="18" width="47" height="24.14" as="geometry" />
        </mxCell>
        <mxCell id="GFtdvAifXNPZdg2QPHuQ-100" value="&lt;div&gt;&lt;b style=&quot;background-color: transparent; color: light-dark(rgb(0, 0, 0), rgb(255, 255, 255));&quot;&gt;Ariba Business Network&lt;/b&gt;&lt;span style=&quot;background-color: transparent; color: light-dark(rgb(0, 0, 0), rgb(255, 255, 255));&quot;&gt;&lt;b&gt;&amp;nbsp;- PRD&lt;/b&gt;&lt;/span&gt;&lt;/div&gt;&lt;div&gt;&lt;span style=&quot;font-size: 10px;&quot;&gt;AN01719992093&lt;/span&gt;&lt;/div&gt;" style="rounded=1;whiteSpace=wrap;html=1;strokeColor=#0070F2;strokeWidth=1.5;arcSize=16;fillColor=#ffffff;perimeterSpacing=0;absoluteArcSize=1;container=0;" vertex="1" parent="GFtdvAifXNPZdg2QPHuQ-105">
          <mxGeometry x="19.63000000000011" y="63" width="195.75" height="60" as="geometry" />
        </mxCell>
        <mxCell id="GFtdvAifXNPZdg2QPHuQ-101" value="&lt;div&gt;&lt;b style=&quot;background-color: transparent; color: light-dark(rgb(0, 0, 0), rgb(255, 255, 255));&quot;&gt;Ariba Business Network&lt;/b&gt;&lt;span style=&quot;background-color: transparent; color: light-dark(rgb(0, 0, 0), rgb(255, 255, 255));&quot;&gt;&lt;b&gt;&amp;nbsp;- TEST&lt;/b&gt;&lt;/span&gt;&lt;/div&gt;&lt;div&gt;&lt;span style=&quot;font-size: 10px;&quot;&gt;AN01719992093-T&lt;/span&gt;&lt;/div&gt;" style="rounded=1;whiteSpace=wrap;html=1;strokeColor=#0070F2;strokeWidth=1.5;arcSize=16;fillColor=#ffffff;perimeterSpacing=0;absoluteArcSize=1;container=0;" vertex="1" parent="GFtdvAifXNPZdg2QPHuQ-105">
          <mxGeometry x="19.62000000000012" y="143" width="195.75" height="60" as="geometry" />
        </mxCell>
        <mxCell id="GFtdvAifXNPZdg2QPHuQ-108" value="" style="group" vertex="1" connectable="0" parent="1">
          <mxGeometry x="980" y="1650" width="235" height="160" as="geometry" />
        </mxCell>
        <mxCell id="GFtdvAifXNPZdg2QPHuQ-85" value="" style="rounded=1;whiteSpace=wrap;html=1;strokeColor=#0070F2;fillColor=#EBF8FF;arcSize=24;absoluteArcSize=1;imageWidth=64;imageHeight=64;strokeWidth=1.5;container=0;" vertex="1" parent="GFtdvAifXNPZdg2QPHuQ-108">
          <mxGeometry width="235" height="160" as="geometry" />
        </mxCell>
        <mxCell id="GFtdvAifXNPZdg2QPHuQ-86" value="&lt;div&gt;&lt;span style=&quot;background-color: transparent; color: light-dark(rgb(0, 0, 0), rgb(255, 255, 255));&quot;&gt;&lt;b&gt;Concur - PRD&lt;/b&gt;&lt;/span&gt;&lt;/div&gt;&lt;div&gt;&lt;span style=&quot;font-size: 10px;&quot;&gt;eu2.concursolutions.com/&lt;/span&gt;&lt;/div&gt;" style="rounded=1;whiteSpace=wrap;html=1;strokeColor=#0070F2;strokeWidth=1.5;arcSize=16;fillColor=#ffffff;perimeterSpacing=0;absoluteArcSize=1;container=0;" vertex="1" parent="GFtdvAifXNPZdg2QPHuQ-108">
          <mxGeometry x="19.61999999999989" y="70" width="195.75" height="60" as="geometry" />
        </mxCell>
        <mxCell id="GFtdvAifXNPZdg2QPHuQ-107" value="Concur" style="image;image=img/lib/sap/SAP_Logo.svg;editableCssRules=.*;verticalLabelPosition=middle;labelBackgroundColor=none;verticalAlign=middle;imageAspect=0;labelPosition=right;align=left;fontSize=16;fontStyle=1;spacingLeft=0;fontColor=#002A86;spacing=0;" vertex="1" parent="GFtdvAifXNPZdg2QPHuQ-108">
          <mxGeometry x="19.61999999999989" y="13.299999999999955" width="52" height="26.7" as="geometry" />
        </mxCell>
        <mxCell id="GFtdvAifXNPZdg2QPHuQ-109" value="" style="group" vertex="1" connectable="0" parent="1">
          <mxGeometry x="1270" y="1650" width="248.5" height="250" as="geometry" />
        </mxCell>
        <mxCell id="GFtdvAifXNPZdg2QPHuQ-90" value="" style="rounded=1;whiteSpace=wrap;html=1;strokeColor=#0070F2;fillColor=#EBF8FF;arcSize=24;absoluteArcSize=1;imageWidth=64;imageHeight=64;strokeWidth=1.5;container=0;" vertex="1" parent="GFtdvAifXNPZdg2QPHuQ-109">
          <mxGeometry width="235" height="250" as="geometry" />
        </mxCell>
        <mxCell id="GFtdvAifXNPZdg2QPHuQ-91" value="&lt;div&gt;&lt;span style=&quot;background-color: transparent; color: light-dark(rgb(0, 0, 0), rgb(255, 255, 255));&quot;&gt;&lt;b&gt;IBP - PRD&lt;/b&gt;&lt;/span&gt;&lt;/div&gt;&lt;div&gt;&lt;span style=&quot;font-size: 10px;&quot;&gt;my303584.scmibp1.ondemand.com&lt;/span&gt;&lt;/div&gt;" style="rounded=1;whiteSpace=wrap;html=1;strokeColor=#0070F2;strokeWidth=1.5;arcSize=16;fillColor=#ffffff;perimeterSpacing=0;absoluteArcSize=1;container=0;" vertex="1" parent="GFtdvAifXNPZdg2QPHuQ-109">
          <mxGeometry x="19.61999999999989" y="80" width="195.75" height="60" as="geometry" />
        </mxCell>
        <mxCell id="GFtdvAifXNPZdg2QPHuQ-92" value="&lt;div&gt;&lt;span style=&quot;background-color: transparent; color: light-dark(rgb(0, 0, 0), rgb(255, 255, 255));&quot;&gt;&lt;b&gt;IBP - TEST&lt;/b&gt;&lt;/span&gt;&lt;/div&gt;&lt;div&gt;&lt;span style=&quot;font-size: 10px;&quot;&gt;my303311.scmibp1.ondemand.com&lt;/span&gt;&lt;/div&gt;" style="rounded=1;whiteSpace=wrap;html=1;strokeColor=#0070F2;strokeWidth=1.5;arcSize=16;fillColor=#ffffff;perimeterSpacing=0;absoluteArcSize=1;container=0;" vertex="1" parent="GFtdvAifXNPZdg2QPHuQ-109">
          <mxGeometry x="19.61999999999989" y="160" width="195.75" height="60" as="geometry" />
        </mxCell>
        <mxCell id="GFtdvAifXNPZdg2QPHuQ-93" value="" style="image;image=img/lib/sap/SAP_Logo.svg;editableCssRules=.*;verticalLabelPosition=middle;labelBackgroundColor=none;verticalAlign=middle;imageAspect=0;labelPosition=right;align=left;fontSize=16;fontStyle=1;spacingLeft=0;fontColor=#002A86;spacing=0;container=0;" vertex="1" parent="GFtdvAifXNPZdg2QPHuQ-109">
          <mxGeometry x="19.61999999999989" y="20" width="57" height="29" as="geometry" />
        </mxCell>
        <mxCell id="GFtdvAifXNPZdg2QPHuQ-106" value="&lt;font face=&quot;arial&quot;&gt;&lt;span style=&quot;font-size: 16px;&quot;&gt;&lt;b&gt;Integrated&lt;/b&gt;&lt;/span&gt;&lt;/font&gt;&lt;div style=&quot;&quot;&gt;&lt;font face=&quot;arial&quot;&gt;&lt;span style=&quot;font-size: 16px;&quot;&gt;&lt;b&gt;Business Planning&lt;/b&gt;&lt;/span&gt;&lt;/font&gt;&lt;/div&gt;" style="text;html=1;align=left;verticalAlign=middle;resizable=0;points=[[0,0.5,0,0,0],[0.5,0,0,0,0],[0.5,1,0,0,0],[1,0.5,0,0,0]];autosize=1;strokeColor=none;fillColor=none;fontSize=12;fontColor=light-dark(#082a86, #bccad8);fontFamily=Helvetica;container=0;" vertex="1" parent="GFtdvAifXNPZdg2QPHuQ-109">
          <mxGeometry x="78.5" y="10" width="170" height="50" as="geometry" />
        </mxCell>
        <mxCell id="GFtdvAifXNPZdg2QPHuQ-120" value="" style="group" vertex="1" connectable="0" parent="1">
          <mxGeometry x="2150" y="440" width="235" height="303" as="geometry" />
        </mxCell>
        <mxCell id="GFtdvAifXNPZdg2QPHuQ-114" value="" style="rounded=1;whiteSpace=wrap;html=1;strokeColor=#0070F2;fillColor=#EBF8FF;arcSize=24;absoluteArcSize=1;imageWidth=64;imageHeight=64;strokeWidth=1.5;" vertex="1" parent="GFtdvAifXNPZdg2QPHuQ-120">
          <mxGeometry width="235" height="303" as="geometry" />
        </mxCell>
        <mxCell id="GFtdvAifXNPZdg2QPHuQ-115" value="&lt;div&gt;&lt;span style=&quot;background-color: transparent; color: light-dark(rgb(0, 0, 0), rgb(255, 255, 255));&quot;&gt;&lt;b&gt;PR3 - PRD&lt;/b&gt;&lt;/span&gt;&lt;/div&gt;&lt;div&gt;&lt;span style=&quot;font-size: 10px; background-color: transparent; color: light-dark(rgb(0, 0, 0), rgb(255, 255, 255));&quot;&gt;app-pr3.frosta.dom&lt;/span&gt;&lt;/div&gt;" style="rounded=1;whiteSpace=wrap;html=1;strokeColor=#0070F2;strokeWidth=1.5;arcSize=16;fillColor=#ffffff;perimeterSpacing=0;absoluteArcSize=1;" vertex="1" parent="GFtdvAifXNPZdg2QPHuQ-120">
          <mxGeometry x="19.61999999999989" y="70" width="195.75" height="60" as="geometry" />
        </mxCell>
        <mxCell id="GFtdvAifXNPZdg2QPHuQ-118" value="&lt;div&gt;&lt;span style=&quot;background-color: transparent; color: light-dark(rgb(0, 0, 0), rgb(255, 255, 255));&quot;&gt;&lt;b&gt;XS5 - TEST&lt;/b&gt;&lt;/span&gt;&lt;/div&gt;&lt;div&gt;&lt;span style=&quot;background-color: transparent; color: light-dark(rgb(0, 0, 0), rgb(255, 255, 255)); font-size: 10px;&quot;&gt;app-xs5.frosta.com&lt;/span&gt;&lt;/div&gt;" style="rounded=1;whiteSpace=wrap;html=1;strokeColor=#0070F2;strokeWidth=1.5;arcSize=16;fillColor=#ffffff;perimeterSpacing=0;absoluteArcSize=1;" vertex="1" parent="GFtdvAifXNPZdg2QPHuQ-120">
          <mxGeometry x="19.620000000000005" y="143" width="195.75" height="60" as="geometry" />
        </mxCell>
        <mxCell id="GFtdvAifXNPZdg2QPHuQ-72" value="S/4HANA" style="image;image=img/lib/sap/SAP_Logo.svg;editableCssRules=.*;verticalLabelPosition=middle;labelBackgroundColor=none;verticalAlign=middle;imageAspect=0;labelPosition=right;align=left;fontSize=16;fontStyle=1;spacingLeft=0;fontColor=#002A86;spacing=0;" vertex="1" parent="GFtdvAifXNPZdg2QPHuQ-120">
          <mxGeometry x="19.629999999999995" y="20" width="47" height="24.14" as="geometry" />
        </mxCell>
        <mxCell id="GFtdvAifXNPZdg2QPHuQ-119" value="&lt;div&gt;&lt;span style=&quot;background-color: transparent; color: light-dark(rgb(0, 0, 0), rgb(255, 255, 255));&quot;&gt;&lt;b&gt;ES4 - DEV&lt;/b&gt;&lt;/span&gt;&lt;/div&gt;&lt;div&gt;&lt;span style=&quot;background-color: transparent; color: light-dark(rgb(0, 0, 0), rgb(255, 255, 255)); font-size: 10px;&quot;&gt;app-es4.frosta.com&lt;/span&gt;&lt;/div&gt;" style="rounded=1;whiteSpace=wrap;html=1;strokeColor=#0070F2;strokeWidth=1.5;arcSize=16;fillColor=#ffffff;perimeterSpacing=0;absoluteArcSize=1;" vertex="1" parent="GFtdvAifXNPZdg2QPHuQ-120">
          <mxGeometry x="19.629999999999995" y="220" width="195.75" height="60" as="geometry" />
        </mxCell>
        <mxCell id="GFtdvAifXNPZdg2QPHuQ-130" value="" style="group" vertex="1" connectable="0" parent="1">
          <mxGeometry x="2150" y="800" width="260" height="220" as="geometry" />
        </mxCell>
        <mxCell id="GFtdvAifXNPZdg2QPHuQ-122" value="" style="rounded=1;whiteSpace=wrap;html=1;strokeColor=#0070F2;fillColor=#EBF8FF;arcSize=24;absoluteArcSize=1;imageWidth=64;imageHeight=64;strokeWidth=1.5;" vertex="1" parent="GFtdvAifXNPZdg2QPHuQ-130">
          <mxGeometry width="235" height="220" as="geometry" />
        </mxCell>
        <mxCell id="GFtdvAifXNPZdg2QPHuQ-123" value="&lt;div&gt;&lt;span style=&quot;background-color: transparent; color: light-dark(rgb(0, 0, 0), rgb(255, 255, 255));&quot;&gt;&lt;b&gt;PHR - PRD&lt;/b&gt;&lt;/span&gt;&lt;/div&gt;&lt;div&gt;&lt;span style=&quot;font-size: 10px; background-color: transparent; color: light-dark(rgb(0, 0, 0), rgb(255, 255, 255));&quot;&gt;app-phr.frosta.dom&lt;/span&gt;&lt;/div&gt;" style="rounded=1;whiteSpace=wrap;html=1;strokeColor=#0070F2;strokeWidth=1.5;arcSize=16;fillColor=#ffffff;perimeterSpacing=0;absoluteArcSize=1;" vertex="1" parent="GFtdvAifXNPZdg2QPHuQ-130">
          <mxGeometry x="19.61999999999989" y="70" width="195.75" height="60" as="geometry" />
        </mxCell>
        <mxCell id="GFtdvAifXNPZdg2QPHuQ-124" value="&lt;div&gt;&lt;span style=&quot;background-color: transparent; color: light-dark(rgb(0, 0, 0), rgb(255, 255, 255));&quot;&gt;&lt;b&gt;EHR - TEST&lt;/b&gt;&lt;/span&gt;&lt;/div&gt;&lt;div&gt;&lt;span style=&quot;background-color: transparent; color: light-dark(rgb(0, 0, 0), rgb(255, 255, 255)); font-size: 10px;&quot;&gt;app-ehr.frosta.com&lt;/span&gt;&lt;/div&gt;" style="rounded=1;whiteSpace=wrap;html=1;strokeColor=#0070F2;strokeWidth=1.5;arcSize=16;fillColor=#ffffff;perimeterSpacing=0;absoluteArcSize=1;" vertex="1" parent="GFtdvAifXNPZdg2QPHuQ-130">
          <mxGeometry x="19.620000000000005" y="143" width="195.75" height="60" as="geometry" />
        </mxCell>
        <mxCell id="GFtdvAifXNPZdg2QPHuQ-129" value="" style="group" vertex="1" connectable="0" parent="GFtdvAifXNPZdg2QPHuQ-130">
          <mxGeometry x="20" y="10" width="240" height="50" as="geometry" />
        </mxCell>
        <mxCell id="GFtdvAifXNPZdg2QPHuQ-127" value="" style="image;image=img/lib/sap/SAP_Logo.svg;editableCssRules=.*;verticalLabelPosition=middle;labelBackgroundColor=none;verticalAlign=middle;imageAspect=0;labelPosition=right;align=left;fontSize=16;fontStyle=1;spacingLeft=0;fontColor=#002A86;spacing=0;" vertex="1" parent="GFtdvAifXNPZdg2QPHuQ-129">
          <mxGeometry y="10" width="57" height="29" as="geometry" />
        </mxCell>
        <mxCell id="GFtdvAifXNPZdg2QPHuQ-128" value="&lt;font face=&quot;arial&quot;&gt;&lt;span style=&quot;font-size: 16px;&quot;&gt;&lt;b&gt;Human&amp;nbsp;&lt;/b&gt;&lt;/span&gt;&lt;/font&gt;&lt;b style=&quot;font-size: 16px; font-family: arial; background-color: transparent; color: light-dark(rgb(8, 42, 134), rgb(188, 202, 216));&quot;&gt;Capital&lt;/b&gt;&lt;div&gt;&lt;b style=&quot;font-size: 16px; font-family: arial; background-color: transparent; color: light-dark(rgb(8, 42, 134), rgb(188, 202, 216));&quot;&gt;Management&lt;/b&gt;&lt;/div&gt;" style="text;html=1;align=left;verticalAlign=middle;resizable=0;points=[[0,0.5,0,0,0],[0.5,0,0,0,0],[0.5,1,0,0,0],[1,0.5,0,0,0]];autosize=1;strokeColor=none;fillColor=none;fontSize=12;fontColor=light-dark(#082a86, #bccad8);fontFamily=Helvetica;container=0;" vertex="1" parent="GFtdvAifXNPZdg2QPHuQ-129">
          <mxGeometry x="60" width="140" height="50" as="geometry" />
        </mxCell>
        <mxCell id="GFtdvAifXNPZdg2QPHuQ-139" style="edgeStyle=orthogonalEdgeStyle;rounded=0;orthogonalLoop=1;jettySize=auto;html=1;fontSize=18;strokeColor=#475E75;fontFamily=Helvetica;fontColor=default;targetPerimeterSpacing=15;endSize=4;startSize=4;endArrow=blockThin;endFill=1;strokeWidth=1.5;startArrow=blockThin;startFill=1;exitX=0.5;exitY=1;exitDx=0;exitDy=0;entryX=0.5;entryY=0;entryDx=0;entryDy=0;" edge="1" parent="1" source="GFtdvAifXNPZdg2QPHuQ-114" target="GFtdvAifXNPZdg2QPHuQ-122">
          <mxGeometry relative="1" as="geometry">
            <mxPoint x="2310" y="760" as="targetPoint" />
            <mxPoint x="2190" y="740" as="sourcePoint" />
            <Array as="points">
              <mxPoint x="2267" y="772" />
              <mxPoint x="2268" y="772" />
              <mxPoint x="2268" y="800" />
            </Array>
          </mxGeometry>
        </mxCell>
        <mxCell id="GFtdvAifXNPZdg2QPHuQ-140" style="edgeStyle=orthogonalEdgeStyle;rounded=0;orthogonalLoop=1;jettySize=auto;html=1;fontSize=18;strokeColor=#475E75;fontFamily=Helvetica;fontColor=default;targetPerimeterSpacing=15;endSize=4;startSize=4;endArrow=blockThin;endFill=1;strokeWidth=1.5;startArrow=blockThin;startFill=1;exitX=0;exitY=0.5;exitDx=0;exitDy=0;entryX=1;entryY=0.5;entryDx=0;entryDy=0;entryPerimeter=0;" edge="1" parent="1" source="GFtdvAifXNPZdg2QPHuQ-114" target="GFtdvAifXNPZdg2QPHuQ-138">
          <mxGeometry relative="1" as="geometry">
            <mxPoint x="2390" y="918" as="targetPoint" />
            <mxPoint x="2390" y="630" as="sourcePoint" />
            <Array as="points">
              <mxPoint x="2100" y="592" />
              <mxPoint x="2100" y="775" />
            </Array>
          </mxGeometry>
        </mxCell>
        <mxCell id="GFtdvAifXNPZdg2QPHuQ-141" style="edgeStyle=orthogonalEdgeStyle;rounded=0;orthogonalLoop=1;jettySize=auto;html=1;fontSize=18;strokeColor=#475E75;fontFamily=Helvetica;fontColor=default;targetPerimeterSpacing=15;endSize=4;startSize=4;endArrow=blockThin;endFill=1;strokeWidth=1.5;startArrow=blockThin;startFill=1;exitX=0;exitY=0.5;exitDx=0;exitDy=0;entryX=1;entryY=0.5;entryDx=0;entryDy=0;entryPerimeter=0;" edge="1" parent="1" source="GFtdvAifXNPZdg2QPHuQ-122" target="GFtdvAifXNPZdg2QPHuQ-138">
          <mxGeometry relative="1" as="geometry">
            <mxPoint x="2100" y="821" as="targetPoint" />
            <mxPoint x="2210" y="720" as="sourcePoint" />
            <Array as="points">
              <mxPoint x="2100" y="910" />
              <mxPoint x="2100" y="775" />
            </Array>
          </mxGeometry>
        </mxCell>
        <mxCell id="GFtdvAifXNPZdg2QPHuQ-142" style="edgeStyle=orthogonalEdgeStyle;rounded=0;orthogonalLoop=1;jettySize=auto;html=1;fontSize=18;strokeColor=#475E75;fontFamily=Helvetica;fontColor=default;targetPerimeterSpacing=15;endSize=4;startSize=4;endArrow=blockThin;endFill=1;strokeWidth=1.5;startArrow=blockThin;startFill=1;exitX=0.25;exitY=0;exitDx=0;exitDy=0;entryX=1;entryY=0.5;entryDx=0;entryDy=0;exitPerimeter=0;" edge="1" parent="1" source="GFtdvAifXNPZdg2QPHuQ-138" target="SeBkJRlhaxik6qpEVH74-4">
          <mxGeometry relative="1" as="geometry">
            <mxPoint x="2130" y="871" as="targetPoint" />
            <mxPoint x="2240" y="770" as="sourcePoint" />
            <Array as="points">
              <mxPoint x="2002" y="730" />
              <mxPoint x="1770" y="730" />
              <mxPoint x="1770" y="870" />
            </Array>
          </mxGeometry>
        </mxCell>
        <mxCell id="GFtdvAifXNPZdg2QPHuQ-143" style="edgeStyle=orthogonalEdgeStyle;rounded=0;orthogonalLoop=1;jettySize=auto;html=1;fontSize=18;strokeColor=#475E75;fontFamily=Helvetica;fontColor=default;targetPerimeterSpacing=15;endSize=4;startSize=4;endArrow=blockThin;endFill=1;strokeWidth=1.5;startArrow=blockThin;startFill=1;exitX=0;exitY=0.325;exitDx=0;exitDy=0;entryX=0.5;entryY=0;entryDx=0;entryDy=0;exitPerimeter=0;" edge="1" parent="1" source="GFtdvAifXNPZdg2QPHuQ-138" target="GFtdvAifXNPZdg2QPHuQ-90">
          <mxGeometry relative="1" as="geometry">
            <mxPoint x="1910" y="1381" as="targetPoint" />
            <mxPoint x="2020" y="1280" as="sourcePoint" />
            <Array as="points">
              <mxPoint x="1790" y="766" />
              <mxPoint x="1790" y="1460" />
              <mxPoint x="1388" y="1460" />
            </Array>
          </mxGeometry>
        </mxCell>
        <mxCell id="GFtdvAifXNPZdg2QPHuQ-144" style="edgeStyle=orthogonalEdgeStyle;rounded=0;orthogonalLoop=1;jettySize=auto;html=1;fontSize=18;strokeColor=#475E75;fontFamily=Helvetica;fontColor=default;targetPerimeterSpacing=15;endSize=4;startSize=4;endArrow=blockThin;endFill=1;strokeWidth=1.5;startArrow=blockThin;startFill=1;exitX=0.5;exitY=1;exitDx=0;exitDy=0;entryX=0.5;entryY=0;entryDx=0;entryDy=0;" edge="1" parent="1" source="SeBkJRlhaxik6qpEVH74-4" target="GFtdvAifXNPZdg2QPHuQ-55">
          <mxGeometry relative="1" as="geometry">
            <mxPoint x="1770" y="1581" as="targetPoint" />
            <mxPoint x="1880" y="1480" as="sourcePoint" />
            <Array as="points">
              <mxPoint x="924" y="1550" />
              <mxPoint x="798" y="1550" />
            </Array>
          </mxGeometry>
        </mxCell>
        <mxCell id="GFtdvAifXNPZdg2QPHuQ-145" style="edgeStyle=orthogonalEdgeStyle;rounded=0;orthogonalLoop=1;jettySize=auto;html=1;fontSize=18;strokeColor=#475E75;fontFamily=Helvetica;fontColor=default;targetPerimeterSpacing=15;endSize=4;startSize=4;endArrow=blockThin;endFill=1;strokeWidth=1.5;startArrow=blockThin;startFill=1;exitX=0.625;exitY=1;exitDx=0;exitDy=0;entryX=0.5;entryY=0;entryDx=0;entryDy=0;exitPerimeter=0;" edge="1" parent="1" source="GFtdvAifXNPZdg2QPHuQ-138" target="GFtdvAifXNPZdg2QPHuQ-96">
          <mxGeometry relative="1" as="geometry">
            <mxPoint x="2700" y="1730" as="targetPoint" />
            <mxPoint x="2826" y="1430" as="sourcePoint" />
            <Array as="points">
              <mxPoint x="2021" y="840" />
              <mxPoint x="1860" y="840" />
              <mxPoint x="1860" y="1470" />
              <mxPoint x="2298" y="1470" />
            </Array>
          </mxGeometry>
        </mxCell>
        <mxCell id="GFtdvAifXNPZdg2QPHuQ-146" style="edgeStyle=orthogonalEdgeStyle;rounded=0;orthogonalLoop=1;jettySize=auto;html=1;fontSize=18;strokeColor=#475E75;fontFamily=Helvetica;fontColor=default;targetPerimeterSpacing=15;endSize=4;startSize=4;endArrow=blockThin;endFill=1;strokeWidth=1.5;startArrow=blockThin;startFill=1;exitX=0;exitY=0.675;exitDx=0;exitDy=0;entryX=0.5;entryY=0;entryDx=0;entryDy=0;exitPerimeter=0;" edge="1" parent="1" source="GFtdvAifXNPZdg2QPHuQ-138" target="GFtdvAifXNPZdg2QPHuQ-75">
          <mxGeometry relative="1" as="geometry">
            <mxPoint x="1790" y="2334" as="targetPoint" />
            <mxPoint x="2392" y="1450" as="sourcePoint" />
            <Array as="points">
              <mxPoint x="1810" y="784" />
              <mxPoint x="1810" y="1500" />
              <mxPoint x="1683" y="1500" />
            </Array>
          </mxGeometry>
        </mxCell>
        <mxCell id="GFtdvAifXNPZdg2QPHuQ-147" style="edgeStyle=orthogonalEdgeStyle;rounded=0;orthogonalLoop=1;jettySize=auto;html=1;fontSize=18;strokeColor=#475E75;fontFamily=Helvetica;fontColor=default;targetPerimeterSpacing=15;endSize=4;startSize=4;endArrow=blockThin;endFill=1;strokeWidth=1.5;startArrow=blockThin;startFill=1;entryX=0.5;entryY=0;entryDx=0;entryDy=0;exitX=0.25;exitY=1;exitDx=0;exitDy=0;exitPerimeter=0;" edge="1" parent="1" source="GFtdvAifXNPZdg2QPHuQ-138" target="GFtdvAifXNPZdg2QPHuQ-64">
          <mxGeometry relative="1" as="geometry">
            <mxPoint x="1820" y="2116" as="targetPoint" />
            <mxPoint x="1860" y="830" as="sourcePoint" />
            <Array as="points">
              <mxPoint x="1830" y="800" />
              <mxPoint x="1830" y="1500" />
              <mxPoint x="1988" y="1500" />
            </Array>
          </mxGeometry>
        </mxCell>
        <mxCell id="GFtdvAifXNPZdg2QPHuQ-148" style="edgeStyle=orthogonalEdgeStyle;rounded=0;orthogonalLoop=1;jettySize=auto;html=1;fontSize=18;strokeColor=light-dark(#813bb0, #9577a3);fontFamily=Helvetica;fontColor=default;targetPerimeterSpacing=15;endSize=4;startSize=4;endArrow=blockThin;endFill=1;strokeWidth=1.5;startArrow=blockThin;startFill=1;exitX=0.5;exitY=1;exitDx=0;exitDy=0;entryX=0;entryY=0.5;entryDx=0;entryDy=0;dashed=1;fillColor=#e1d5e7;" edge="1" parent="1" source="GFtdvAifXNPZdg2QPHuQ-64" target="GFtdvAifXNPZdg2QPHuQ-53">
          <mxGeometry relative="1" as="geometry">
            <mxPoint x="930" y="1830" as="targetPoint" />
            <mxPoint x="1056" y="1530" as="sourcePoint" />
            <Array as="points">
              <mxPoint x="1988" y="1930" />
              <mxPoint x="2550" y="1930" />
              <mxPoint x="2550" y="1750" />
            </Array>
          </mxGeometry>
        </mxCell>
        <mxCell id="GFtdvAifXNPZdg2QPHuQ-149" style="edgeStyle=orthogonalEdgeStyle;rounded=0;orthogonalLoop=1;jettySize=auto;html=1;fontSize=18;strokeColor=light-dark(#813bb0, #9577a3);fontFamily=Helvetica;fontColor=default;targetPerimeterSpacing=15;endSize=4;startSize=4;endArrow=blockThin;endFill=1;strokeWidth=1.5;startArrow=blockThin;startFill=1;exitX=0.5;exitY=1;exitDx=0;exitDy=0;entryX=0;entryY=0.5;entryDx=0;entryDy=0;dashed=1;fillColor=#e1d5e7;" edge="1" parent="1" source="GFtdvAifXNPZdg2QPHuQ-75" target="GFtdvAifXNPZdg2QPHuQ-53">
          <mxGeometry relative="1" as="geometry">
            <mxPoint x="3022" y="1860" as="targetPoint" />
            <mxPoint x="2240" y="1980" as="sourcePoint" />
            <Array as="points">
              <mxPoint x="1683" y="1960" />
              <mxPoint x="2580" y="1960" />
              <mxPoint x="2580" y="1750" />
            </Array>
          </mxGeometry>
        </mxCell>
        <mxCell id="GFtdvAifXNPZdg2QPHuQ-150" style="edgeStyle=orthogonalEdgeStyle;rounded=0;orthogonalLoop=1;jettySize=auto;html=1;fontSize=18;strokeColor=light-dark(#813bb0, #9577a3);fontFamily=Helvetica;fontColor=default;targetPerimeterSpacing=15;endSize=4;startSize=4;endArrow=blockThin;endFill=1;strokeWidth=1.5;startArrow=blockThin;startFill=1;exitX=0.5;exitY=1;exitDx=0;exitDy=0;entryX=0;entryY=0.5;entryDx=0;entryDy=0;dashed=1;fillColor=#e1d5e7;" edge="1" parent="1" source="GFtdvAifXNPZdg2QPHuQ-90" target="GFtdvAifXNPZdg2QPHuQ-53">
          <mxGeometry relative="1" as="geometry">
            <mxPoint x="2797" y="1950" as="targetPoint" />
            <mxPoint x="1710" y="2090" as="sourcePoint" />
            <Array as="points">
              <mxPoint x="1387" y="1990" />
              <mxPoint x="2610" y="1990" />
              <mxPoint x="2610" y="1750" />
            </Array>
          </mxGeometry>
        </mxCell>
        <mxCell id="GFtdvAifXNPZdg2QPHuQ-151" style="edgeStyle=orthogonalEdgeStyle;rounded=0;orthogonalLoop=1;jettySize=auto;html=1;fontSize=18;strokeColor=light-dark(#813bb0, #9577a3);fontFamily=Helvetica;fontColor=default;targetPerimeterSpacing=15;endSize=4;startSize=4;endArrow=blockThin;endFill=1;strokeWidth=1.5;startArrow=blockThin;startFill=1;exitX=0.5;exitY=1;exitDx=0;exitDy=0;entryX=0;entryY=0.5;entryDx=0;entryDy=0;dashed=1;fillColor=#e1d5e7;" edge="1" parent="1" source="GFtdvAifXNPZdg2QPHuQ-85" target="GFtdvAifXNPZdg2QPHuQ-53">
          <mxGeometry relative="1" as="geometry">
            <mxPoint x="2497" y="2020" as="targetPoint" />
            <mxPoint x="1410" y="2160" as="sourcePoint" />
            <Array as="points">
              <mxPoint x="1098" y="2020" />
              <mxPoint x="2640" y="2020" />
              <mxPoint x="2640" y="1750" />
            </Array>
          </mxGeometry>
        </mxCell>
        <mxCell id="GFtdvAifXNPZdg2QPHuQ-152" style="edgeStyle=orthogonalEdgeStyle;rounded=0;orthogonalLoop=1;jettySize=auto;html=1;fontSize=18;strokeColor=light-dark(#813bb0, #9577a3);fontFamily=Helvetica;fontColor=default;targetPerimeterSpacing=15;endSize=4;startSize=4;endArrow=blockThin;endFill=1;strokeWidth=1.5;startArrow=blockThin;startFill=1;exitX=0.5;exitY=1;exitDx=0;exitDy=0;entryX=0;entryY=0.5;entryDx=0;entryDy=0;dashed=1;fillColor=#e1d5e7;" edge="1" parent="1" source="GFtdvAifXNPZdg2QPHuQ-55" target="GFtdvAifXNPZdg2QPHuQ-53">
          <mxGeometry relative="1" as="geometry">
            <mxPoint x="3647" y="2080" as="targetPoint" />
            <mxPoint x="2560" y="2220" as="sourcePoint" />
            <Array as="points">
              <mxPoint x="798" y="2050" />
              <mxPoint x="2670" y="2050" />
              <mxPoint x="2670" y="1750" />
            </Array>
          </mxGeometry>
        </mxCell>
        <mxCell id="GFtdvAifXNPZdg2QPHuQ-153" value="&lt;font style=&quot;color: rgb(157, 9, 243);&quot; size=&quot;1&quot;&gt;&lt;b style=&quot;&quot;&gt;SAML&lt;/b&gt;&lt;/font&gt;" style="rounded=1;whiteSpace=wrap;html=1;arcSize=50;strokeColor=light-dark(#813bb0, #46a6ff);fillColor=default;strokeWidth=1.5;" vertex="1" parent="1">
          <mxGeometry x="2693" y="1730" width="57" height="16" as="geometry" />
        </mxCell>
      </root>
    </mxGraphModel>
  </diagram>
</mxfile>
